<?xml version="1.0" standalone="no"?>
<!DOCTYPE svg PUBLIC "-//W3C//DTD SVG 1.1//EN" "http://www.w3.org/Graphics/SVG/1.1/DTD/svg11.dtd" >
<svg xmlns="http://www.w3.org/2000/svg" xmlns:xlink="http://www.w3.org/1999/xlink" version="1.1">
<metadata></metadata>
<defs>
<font id="yummolight" horiz-adv-x="1077" >
<font-face units-per-em="2048" ascent="1638" descent="-410" />
<missing-glyph horiz-adv-x="448" />
<glyph horiz-adv-x="0" />
<glyph horiz-adv-x="682" />
<glyph unicode=" "  horiz-adv-x="448" />
<glyph unicode="&#x09;" horiz-adv-x="448" />
<glyph unicode="&#xa0;" horiz-adv-x="448" />
<glyph unicode="!" horiz-adv-x="479" d="M170 33v100q0 33 33 33h71q33 0 33 -33v-100q0 -33 -33 -33h-71q-15 0 -24 9t-9 24zM184 1401q-3 33 33 33h45q15 0 24 -9t9 -24l-12 -1004q0 -32 -31 -32h-25q-29 0 -32 32z" />
<glyph unicode="&#x22;" horiz-adv-x="704" d="M154 1405q0 13 9 21t23 8h52q30 0 30 -29l-16 -447q-3 -28 -29 -28h-22q-29 0 -29 28zM436 1405q0 13 9.5 21t23.5 8h51q14 0 22.5 -8t8.5 -21l-16 -447q-3 -28 -29 -28h-23q-28 0 -28 28z" />
<glyph unicode="#" d="M61 420l5 22q3 31 34 31h140l51 488h-141q-14 0 -22 8t-5 22l2 23q7 33 35 33h139l39 356q3 31 33 31h22q32 0 29 -31l-37 -356h371l37 356q3 31 34 31h23q32 0 29 -31l-39 -356h145q32 0 29 -33l-4 -23q-3 -30 -35 -30h-144l-51 -488h146q14 0 21.5 -8t4.5 -23l-2 -22 q-7 -33 -35 -33h-143l-37 -356q-6 -31 -35 -31h-22q-32 0 -29 31l37 356h-371l-36 -356q-3 -31 -33 -31h-25q-31 0 -28 31l38 356h-141q-32 0 -29 33zM326 473h370l49 488h-370z" />
<glyph unicode="$" d="M156 393v6q0 33 30 33h33q31 0 31 -31q0 -121 80.5 -178t208.5 -57t208 57.5t80 175.5q0 54 -18.5 95.5t-50.5 68.5t-74.5 49.5t-90.5 37t-98.5 32.5t-98.5 35t-90.5 45t-74.5 62.5t-50.5 87.5t-18.5 120v4q0 137 91 221t241 95v139q0 31 30 31h29q31 0 31 -31v-139 q149 -12 239 -94t90 -216v-8q0 -33 -32 -33h-31q-31 0 -31 31q0 120 -78 178t-204 58q-124 0 -201.5 -59t-77.5 -179q0 -65 28.5 -113t75 -74.5t106.5 -50.5t122 -40.5t122 -45t106.5 -64t75 -97.5t28.5 -144v-6q0 -140 -91 -221t-247 -92v-139q0 -31 -31 -31h-29 q-30 0 -30 31v139q-157 9 -247.5 90.5t-90.5 220.5z" />
<glyph unicode="%" horiz-adv-x="1355" d="M86 983v197q0 135 70.5 205.5t187.5 70.5q118 0 189 -70.5t71 -205.5v-197q0 -135 -71 -205.5t-189 -70.5q-117 0 -187.5 70.5t-70.5 205.5zM170 989q0 -201 174 -201t174 201v185q0 200 -174 200t-174 -200v-185zM294.5 12q-5.5 12 2.5 25l676 1370q12 27 41 27h24 q15 0 21 -12t-2 -25l-676 -1370q-12 -27 -41 -27h-25q-15 0 -20.5 12zM752 254v197q0 135 70.5 205.5t187.5 70.5q118 0 189 -70.5t71 -205.5v-197q0 -135 -71 -206t-189 -71q-117 0 -187.5 71t-70.5 206zM836 260q0 -201 174 -201t174 201v184q0 201 -174 201t-174 -201 v-184z" />
<glyph unicode="&#x26;" horiz-adv-x="1124" d="M143 369v45q0 131 59.5 222t162.5 130q-97 37 -151 115.5t-54 197.5v8q0 170 106 269.5t277 99.5t277 -99.5t106 -269.5q0 -34 -33 -34h-33q-33 0 -33 32v2q0 131 -79 204t-205 73q-127 0 -206 -73t-79 -204v-2q0 -131 79 -202.5t206 -71.5h86q15 0 24 -9t9 -24v-26 q0 -15 -9 -24t-24 -9h-86q-137 0 -219 -78.5t-82 -216.5v-57q0 -139 82 -218t219 -79t219 79t82 218v65h-162q-35 0 -35 33v24q0 33 35 33h346q15 0 24 -9t9 -24v-24q0 -15 -9 -24t-24 -9h-86v-63q0 -185 -110 -288.5t-289 -103.5t-289.5 103.5t-110.5 288.5z" />
<glyph unicode="'" horiz-adv-x="421" d="M154 1405q0 13 9 21t23 8h52q30 0 30 -29l-16 -447q-3 -28 -29 -28h-22q-29 0 -29 28z" />
<glyph unicode="(" horiz-adv-x="663" d="M215 92v1065q0 157 79 227t228 70h51q33 0 33 -31v-18q0 -15 -9 -24t-24 -9h-43q-116 0 -166.5 -51t-50.5 -168v-1057q0 -117 50.5 -168t166.5 -51h43q15 0 24 -9t9 -24v-18q0 -31 -33 -31h-51q-149 0 -228 70t-79 227z" />
<glyph unicode=")" horiz-adv-x="663" d="M57 -156q0 15 9 24t24 9h43q116 0 166.5 51t50.5 168v1057q0 117 -50.5 168t-166.5 51h-43q-15 0 -24 9t-9 24v18q0 31 33 31h51q149 0 228.5 -70t79.5 -227v-1065q0 -157 -79.5 -227t-228.5 -70h-51q-33 0 -33 31v18z" />
<glyph unicode="*" d="M90 1092l14 43q13 37 43 20l361 -143l-25 387q-2 15 7 25t26 10h45q17 0 26 -10t7 -25l-25 -387l361 143q30 17 43 -20l14 -43q12 -34 -22 -41l-377 -99l248 -297q22 -25 -7 -47l-36 -26q-13 -11 -27 -9t-21 17l-206 330l-207 -330q-16 -32 -47 -8l-37 26q-28 22 -6 47 l247 297l-376 99q-35 7 -23 41z" />
<glyph unicode="+" d="M102 707v24q0 31 33 31h361v360q0 31 30 31h25q31 0 31 -31v-360h360q33 0 33 -31v-24q0 -15 -9 -24t-24 -9h-360v-361q0 -30 -31 -30h-25q-30 0 -30 30v361h-361q-15 0 -24 9t-9 24z" />
<glyph unicode="," horiz-adv-x="462" d="M115 -236l63 369q3 33 37 33h51q34 0 25 -39l-101 -365q-7 -24 -30 -24h-23q-12 0 -18.5 7t-3.5 19z" />
<glyph unicode="-" horiz-adv-x="671" d="M86 608v29q0 33 31 33h438q15 0 24 -9t9 -24v-29q0 -15 -9 -24t-24 -9h-438q-31 0 -31 33z" />
<glyph unicode="." horiz-adv-x="462" d="M162 33v100q0 33 33 33h71q33 0 33 -33v-100q0 -15 -9 -24t-24 -9h-71q-15 0 -24 9t-9 24z" />
<glyph unicode="/" horiz-adv-x="776" d="M5.5 -111q-6.5 12 2.5 27l670 1509q12 29 43 29h27q17 0 22.5 -12t-2.5 -27l-670 -1509q-14 -29 -43 -29h-26q-17 0 -23.5 12z" />
<glyph unicode="0" d="M143 387v660q0 197 110 303t286 106t285.5 -106t109.5 -303v-660q0 -197 -109.5 -303.5t-285.5 -106.5t-286 106.5t-110 303.5zM242 399q0 -170 82 -249.5t215 -79.5t215 79.5t82 249.5v635q0 170 -82 250t-215 80t-215 -80t-82 -250v-635z" />
<glyph unicode="1" d="M305 33v26q0 33 33 33h233v1235h-239q-27 0 -27 27v18q0 25 27 31l219 27q25 4 59 4h25q35 0 35 -33v-1309h233q15 0 24 -9t9 -24v-26q0 -15 -9 -24t-24 -9h-565q-33 0 -33 33z" />
<glyph unicode="2" d="M154 33v88q0 87 23.5 161.5t63.5 129t92 102.5t109.5 86.5t115 76t109.5 77t92 82.5t63.5 100t23.5 123v10q0 145 -79.5 220t-209.5 75t-209.5 -75t-79.5 -220v-14q0 -35 -32 -35h-33q-33 0 -33 35v14q0 181 106 284t281 103t281 -103t106 -284v-8q0 -76 -23.5 -141.5 t-63.5 -114.5t-92 -92.5t-109.5 -81.5t-115 -75.5t-109.5 -81t-92 -92t-63.5 -113t-23.5 -140.5v-37h659q15 0 24 -9t9 -24v-26q0 -15 -9 -24t-24 -9h-725q-32 0 -32 33z" />
<glyph unicode="3" d="M139 369v8q0 15 9 24t24 9h35q13 0 22 -9t9 -22v-12q0 -139 82 -218t219 -79t219 79t82 218v36q0 138 -82 216.5t-219 78.5h-123q-33 0 -33 33v27q0 33 33 33h123q127 0 205.5 72.5t78.5 203.5v20q0 131 -78.5 204t-205.5 73t-206 -73t-79 -204v-2q0 -32 -33 -32h-33 q-32 0 -32 34q0 170 106 269.5t277 99.5t277 -99.5t106 -269.5v-8q0 -122 -56 -207t-155 -124q106 -39 166.5 -130.5t60.5 -224.5v-24q0 -185 -110 -288.5t-289 -103.5t-289.5 103.5t-110.5 288.5z" />
<glyph unicode="4" d="M106 365v28q0 18 11 47l469 967q12 27 41 27h35q17 0 23 -12t-1 -27l-469 -971h559v616q0 15 9 24t24 9h33q32 0 32 -33v-616h105q35 0 35 -33v-26q0 -33 -35 -33h-105v-299q0 -33 -32 -33h-33q-15 0 -24 9t-9 24v299h-635q-33 0 -33 33z" />
<glyph unicode="5" d="M147 356v13q0 32 33 32h33q33 0 33 -32v-17q0 -131 80.5 -206.5t216.5 -75.5t216.5 79t80.5 250v160q0 170 -82 250t-215 80q-104 0 -179.5 -47.5t-101.5 -147.5q-6 -22 -31 -22h-28q-15 0 -24 9t-9 24l31 694q0 17 9.5 26t25.5 9h636q15 0 24 -9t9 -24v-27q0 -15 -9 -24 t-24 -9h-581l-23 -495q94 135 293 135q168 0 272.5 -106t104.5 -302v-186q0 -198 -108 -304t-287 -106q-176 0 -286 101.5t-110 277.5z" />
<glyph unicode="6" d="M143 387v660q0 197 110 303t286 106q171 0 278 -98t107 -264v-4q0 -33 -33 -33h-33q-33 0 -33 30v11q0 120 -78.5 193t-207.5 73q-133 0 -215 -80t-82 -250v-297q45 84 126.5 127t188.5 43q168 0 272.5 -105t104.5 -302v-113q0 -197 -109.5 -303.5t-285.5 -106.5 t-286 106.5t-110 303.5zM242 399q0 -170 82 -249.5t215 -79.5t215 79.5t82 249.5v86q0 170 -82 250t-215 80t-215 -80t-82 -250v-86z" />
<glyph unicode="7" d="M129 1374v27q0 15 9 24t24 9h776q15 0 24 -9t9 -24v-25q0 -22 -13 -45l-589 -1304q-12 -27 -39 -27h-37q-17 0 -23.5 12t0.5 27l594 1302h-702q-15 0 -24 9t-9 24z" />
<glyph unicode="8" d="M127 356v39q0 133 60.5 220.5t168.5 127.5q-101 38 -157 121.5t-56 208.5v25q0 173 109.5 265.5t286.5 92.5t286 -92.5t109 -265.5v-25q0 -125 -56 -208.5t-157 -121.5q107 -40 168 -128t61 -220v-39q0 -184 -113.5 -281.5t-297.5 -97.5q-185 0 -298.5 97.5t-113.5 281.5 zM225 360q0 -143 89.5 -216.5t224.5 -73.5t224 73.5t89 216.5v48q0 142 -89 216t-224 74t-224.5 -74t-89.5 -216v-48zM242 1061q0 -71 24.5 -124.5t67 -84.5t94 -46t111.5 -15t111.5 15t94 46t67 84.5t24.5 124.5v35q0 71 -24.5 124t-67 83.5t-94 45.5t-111.5 15t-111.5 -15 t-94 -45.5t-67 -83.5t-24.5 -124v-35z" />
<glyph unicode="9" d="M143 944v103q0 197 110 303t286 106t285.5 -106t109.5 -303v-660q0 -197 -109.5 -303.5t-285.5 -106.5q-171 0 -278 98.5t-107 264.5v4q0 33 32 33h33q33 0 33 -31v-10q0 -120 79 -193t208 -73q133 0 215 79.5t82 249.5v308q-46 -85 -128 -127.5t-188 -42.5 q-168 0 -272.5 105t-104.5 302zM242 958q0 -170 82 -249.5t215 -79.5t215 79.5t82 249.5v76q0 170 -82 250t-215 80t-215 -80t-82 -250v-76z" />
<glyph unicode=":" horiz-adv-x="462" d="M162 33v100q0 33 33 33h71q33 0 33 -33v-100q0 -15 -9 -24t-24 -9h-71q-15 0 -24 9t-9 24zM162 885v100q0 33 33 33h71q33 0 33 -33v-100q0 -15 -9 -24t-24 -9h-71q-15 0 -24 9t-9 24z" />
<glyph unicode=";" horiz-adv-x="462" d="M115 -236l63 369q3 33 37 33h51q34 0 25 -39l-101 -365q-7 -24 -30 -24h-23q-12 0 -18.5 7t-3.5 19zM162 885v100q0 33 33 33h71q33 0 33 -33v-100q0 -15 -9 -24t-24 -9h-71q-15 0 -24 9t-9 24z" />
<glyph unicode="&#x3c;" d="M133 707v24q0 30 29 43l741 359q15 8 27 2t12 -23v-33q0 -31 -29 -43l-661 -317l661 -316q29 -12 29 -43v-32q0 -17 -12 -23.5t-27 2.5l-741 357q-29 16 -29 43z" />
<glyph unicode="=" d="M102 485v25q0 31 33 31h807q33 0 33 -31v-25q0 -30 -33 -30h-807q-33 0 -33 30zM102 924v24q0 31 33 31h807q33 0 33 -31v-24q0 -31 -33 -31h-807q-33 0 -33 31z" />
<glyph unicode="&#x3e;" d="M133 328v32q0 31 29 43l661 316l-661 317q-29 12 -29 43v33q0 17 12 23t27 -2l741 -359q29 -13 29 -43v-24q0 -27 -29 -43l-741 -357q-15 -9 -27 -2.5t-12 23.5z" />
<glyph unicode="?" horiz-adv-x="821" d="M59 1128q0 145 91.5 236.5t238.5 91.5t238.5 -89.5t91.5 -256.5v-2q0 -67 -19 -123.5t-49.5 -97t-67.5 -76.5t-74 -70.5t-67.5 -70.5t-49.5 -84.5t-19 -104.5v-84q0 -32 -33 -32h-23q-32 0 -32 32v82q0 65 19 121t48.5 96t66 76.5t73 71.5t66 71.5t48.5 85.5t19 105 q0 134 -65.5 198t-170.5 64q-107 0 -171 -67.5t-64 -174.5q0 -14 -9 -22t-24 -8h-29q-33 0 -33 32zM260 33v100q0 33 33 33h72q32 0 32 -33v-100q0 -33 -32 -33h-72q-15 0 -24 9t-9 24z" />
<glyph unicode="@" horiz-adv-x="1366" d="M137 322v544q0 139 41.5 249.5t115 182t173 109t217.5 37.5q117 0 216.5 -37.5t172.5 -109t114.5 -182t41.5 -249.5v-544q0 -139 -41.5 -249.5t-114.5 -182t-172.5 -109t-216.5 -37.5q-118 0 -217.5 37.5t-173 109t-115 182t-41.5 249.5zM219 328q0 -127 35 -224.5 t98.5 -158t147 -91t184.5 -30.5q100 0 183 30.5t146.5 91t98.5 158.5t35 224v532q0 126 -35 224t-98.5 158.5t-146.5 91t-183 30.5q-101 0 -184.5 -30.5t-147 -91t-98.5 -158t-35 -224.5v-532zM426 403v3q0 119 72.5 185t193.5 66h160v97q0 196 -170 196q-72 0 -118 -42.5 t-46 -119.5q0 -22 -24 -22h-33q-27 0 -27 25q0 106 70.5 172.5t177.5 66.5q116 0 185 -69.5t69 -202.5v-328q0 -133 -69 -202.5t-185 -69.5q-110 0 -183 63t-73 182zM510 406q0 -85 47 -126.5t125 -41.5t124 46t46 146v148h-166q-81 0 -128.5 -42.5t-47.5 -129.5z" />
<glyph unicode="A" horiz-adv-x="1169" d="M176 33v999q0 205 114 314.5t296 109.5q181 0 294 -109.5t113 -314.5v-999q0 -33 -35 -33h-30q-35 0 -35 33v483h-614v-483q0 -33 -37 -33h-31q-35 0 -35 33zM279 612h614v408q0 175 -85 257.5t-222 82.5q-138 0 -222.5 -82t-84.5 -258v-408z" />
<glyph unicode="B" horiz-adv-x="1112" d="M195 33v1368q0 33 34 33h371q186 0 275.5 -87.5t89.5 -279.5v-6q0 -138 -47 -217.5t-142 -110.5q106 -30 157.5 -110t51.5 -224v-32q0 -192 -89 -279.5t-275 -87.5h-392q-34 0 -34 33zM295 96h309q150 0 215.5 60.5t65.5 218.5v16q0 163 -68 226t-221 63h-301v-584z M295 776h285q152 0 218 61.5t66 223.5q0 156 -65.5 216t-210.5 60h-293v-561z" />
<glyph unicode="C" horiz-adv-x="1085" d="M154 401v631q0 205 112 314.5t293 109.5q175 0 286 -109.5t111 -299.5v-5q0 -19 -7.5 -26.5t-26.5 -7.5h-33q-33 0 -33 32q0 157 -84 238.5t-213 81.5q-65 0 -119 -18.5t-96.5 -58t-66 -106.5t-23.5 -157v-606q0 -90 23.5 -157t66 -106.5t96.5 -58t119 -18.5 q129 0 213 81t84 238q0 33 33 33h33q19 0 26.5 -8t7.5 -27v-4q0 -191 -111 -300.5t-286 -109.5q-181 0 -293 109.5t-112 314.5z" />
<glyph unicode="D" horiz-adv-x="1144" d="M195 33v1368q0 33 34 33h357q185 0 297 -99.5t112 -302.5v-631q0 -203 -112 -302t-297 -99h-357q-34 0 -34 33zM295 96h291q307 0 307 318v606q0 317 -307 317h-291v-1241z" />
<glyph unicode="E" horiz-adv-x="1032" d="M195 33v1368q0 33 34 33h670q35 0 35 -35v-25q0 -37 -35 -37h-604v-561h491q35 0 35 -35v-24q0 -37 -35 -37h-491v-584h604q35 0 35 -37v-24q0 -35 -35 -35h-670q-34 0 -34 33z" />
<glyph unicode="F" horiz-adv-x="950" d="M195 33v1368q0 33 34 33h633q35 0 35 -35v-25q0 -37 -35 -37h-567v-581h455q34 0 34 -35v-25q0 -37 -34 -37h-455v-626q0 -33 -35 -33h-31q-34 0 -34 33z" />
<glyph unicode="G" horiz-adv-x="1097" d="M154 401v631q0 205 112 314.5t293 109.5q175 0 286 -109.5t111 -299.5v-5q0 -19 -7.5 -26.5t-26.5 -7.5h-33q-33 0 -33 32q0 157 -84 238.5t-213 81.5q-65 0 -119 -18.5t-96.5 -58t-66 -106.5t-23.5 -157v-606q0 -175 85 -257.5t222 -82.5t222 82.5t85 257.5v161h-221 q-33 0 -33 37v25q0 35 33 35h289q33 0 33 -35v-236q0 -205 -113 -314.5t-295 -109.5t-294.5 109.5t-112.5 314.5z" />
<glyph unicode="H" horiz-adv-x="1204" d="M195 33v1368q0 33 34 33h31q35 0 35 -33v-625h614v625q0 33 35 33h31q37 0 37 -33v-1368q0 -33 -37 -33h-31q-35 0 -35 33v647h-614v-647q0 -33 -35 -33h-31q-34 0 -34 33z" />
<glyph unicode="I" horiz-adv-x="489" d="M195 33v1368q0 33 34 33h31q35 0 35 -33v-1368q0 -33 -35 -33h-31q-34 0 -34 33z" />
<glyph unicode="J" horiz-adv-x="989" d="M59 369v22q0 19 8 27t27 8h33q33 0 33 -33v-18q0 -155 75.5 -228t200.5 -73q123 0 199 73t76 228v1026q0 33 34 33h31q37 0 37 -33v-1032q0 -189 -104.5 -290.5t-272.5 -101.5q-169 0 -273 101.5t-104 290.5z" />
<glyph unicode="K" horiz-adv-x="1120" d="M195 33v1368q0 33 34 33h31q35 0 35 -33v-766l612 774q19 25 45 25h45q17 0 23 -14.5t-4 -26.5l-438 -545l450 -807q8 -13 2 -27t-24 -14h-39q-35 0 -47 27l-410 737l-215 -268v-463q0 -33 -35 -33h-31q-34 0 -34 33z" />
<glyph unicode="L" horiz-adv-x="933" d="M195 33v1368q0 33 34 33h31q35 0 35 -33v-1305h553q35 0 35 -37v-24q0 -35 -35 -35h-619q-34 0 -34 33z" />
<glyph unicode="M" horiz-adv-x="1705" d="M176 33v1052q0 180 99.5 275.5t259.5 95.5q116 0 198.5 -53t118.5 -156q36 103 119 156t200 53q160 0 259.5 -95.5t99.5 -275.5v-1052q0 -33 -37 -33h-31q-35 0 -35 33v1032q0 152 -73 223.5t-191 71.5q-116 0 -188 -71.5t-72 -223.5v-1032q0 -33 -35 -33h-30 q-35 0 -35 33v1032q0 152 -72 223.5t-190 71.5t-190 -71.5t-72 -223.5v-1032q0 -33 -37 -33h-31q-35 0 -35 33z" />
<glyph unicode="N" horiz-adv-x="1169" d="M176 33v999q0 205 114 314.5t296 109.5q181 0 294 -109.5t113 -314.5v-999q0 -33 -35 -33h-30q-35 0 -35 33v987q0 175 -85 257.5t-222 82.5q-138 0 -222.5 -82t-84.5 -258v-987q0 -33 -37 -33h-31q-35 0 -35 33z" />
<glyph unicode="O" horiz-adv-x="1122" d="M154 401v631q0 205 112.5 314.5t294.5 109.5t295 -109.5t113 -314.5v-631q0 -205 -113 -314.5t-295 -109.5t-294.5 109.5t-112.5 314.5zM254 414q0 -175 85 -257.5t222 -82.5t222 82.5t85 257.5v606q0 175 -85 257.5t-222 82.5t-222 -82.5t-85 -257.5v-606z" />
<glyph unicode="P" d="M195 33v1368q0 33 34 33h361q194 0 290.5 -93.5t96.5 -293.5v-62q0 -198 -97 -292.5t-290 -94.5h-295v-565q0 -33 -35 -33h-31q-34 0 -34 33zM295 694h278q158 0 229.5 67t71.5 236v39q0 168 -71.5 234.5t-229.5 66.5h-278v-643z" />
<glyph unicode="Q" horiz-adv-x="1122" d="M154 401v631q0 205 112.5 314.5t294.5 109.5t295 -109.5t113 -314.5v-631q0 -168 -77 -271.5t-208 -135.5v-76q0 -94 39 -135t125 -41q33 0 51 6q33 9 33 -29v-26q0 -28 -33 -37q-18 -6 -57 -6q-256 0 -256 256v71h-25q-182 0 -294.5 109.5t-112.5 314.5zM254 414 q0 -175 85 -257.5t222 -82.5t222 82.5t85 257.5v606q0 175 -85 257.5t-222 82.5t-222 -82.5t-85 -257.5v-606z" />
<glyph unicode="R" horiz-adv-x="1144" d="M195 33v1368q0 33 34 33h381q186 0 275.5 -87.5t89.5 -279.5v-29q0 -138 -48 -217t-145 -112q101 -30 151 -109.5t50 -220.5v-346q0 -33 -37 -33h-31q-34 0 -34 33v342q0 158 -67 221t-218 63h-301v-626q0 -33 -35 -33h-31q-34 0 -34 33zM295 756h291q77 0 128.5 13.5 t88.5 46t54 88.5t17 140v15q0 158 -65 218t-215 60h-299v-581z" />
<glyph unicode="S" horiz-adv-x="1040" d="M125 346v12q0 33 35 33h33q34 0 34 -33v-6q0 -143 81 -210.5t214 -67.5q132 0 213.5 66.5t81.5 207.5v2q0 66 -23.5 117.5t-63 84.5t-90.5 60t-107.5 49.5t-113 46t-107.5 55.5t-90.5 73.5t-63 104.5t-23.5 144v2q0 175 107 272t278 97t278 -97t107 -272v-10 q0 -35 -37 -35h-30q-35 0 -35 33v4q0 142 -78 211.5t-205 69.5q-128 0 -206 -67.5t-78 -207.5v-2q0 -66 23.5 -117t63 -84.5t90.5 -60t107.5 -48.5t113 -45.5t107.5 -55.5t90.5 -73.5t63 -105.5t23.5 -145v-2q0 -177 -109.5 -273t-288.5 -96q-178 0 -286.5 96.5 t-108.5 272.5z" />
<glyph unicode="T" horiz-adv-x="899" d="M51 1374v25q0 35 33 35h731q35 0 35 -35v-25q0 -37 -35 -37h-315v-1304q0 -33 -35 -33h-31q-35 0 -35 33v1304h-315q-33 0 -33 37z" />
<glyph unicode="U" horiz-adv-x="1169" d="M176 401v1000q0 33 35 33h31q37 0 37 -33v-987q0 -176 84.5 -258t222.5 -82q137 0 222 82.5t85 257.5v987q0 33 35 33h30q35 0 35 -33v-1000q0 -205 -113 -314.5t-294 -109.5q-182 0 -296 109.5t-114 314.5z" />
<glyph unicode="V" horiz-adv-x="1079" d="M76 1395q-5 16 1.5 27.5t24.5 11.5h41q31 0 37 -29l361 -1307l362 1307q6 29 37 29h37q17 0 24.5 -11.5t2.5 -27.5l-379 -1346q-12 -49 -62 -49h-47q-49 0 -61 49z" />
<glyph unicode="W" horiz-adv-x="1705" d="M176 348v1053q0 33 35 33h31q37 0 37 -33v-1032q0 -152 72 -223.5t190 -71.5t190 71.5t72 223.5v1032q0 33 35 33h30q35 0 35 -33v-1032q0 -153 71.5 -224t188.5 -71q118 0 191 71.5t73 223.5v1032q0 33 35 33h31q35 0 35 -33v-1053q0 -180 -99 -275.5t-258 -95.5 q-116 0 -199.5 52t-119.5 153q-38 -101 -120 -153t-197 -52q-160 0 -259.5 95.5t-99.5 275.5z" />
<glyph unicode="X" horiz-adv-x="1062" d="M89 14q-7 14 1 27l375 688l-361 664q-8 13 -1 27t24 14h41q31 0 43 -27l321 -604l322 604q15 27 45 27h37q18 0 24 -14t-2 -27l-360 -664l375 -688q8 -13 1.5 -27t-24.5 -14h-39q-33 0 -45 27l-338 628l-333 -628q-15 -27 -45 -27h-37q-17 0 -24 14z" />
<glyph unicode="Y" horiz-adv-x="1103" d="M135 913v488q0 33 35 33h31q35 0 35 -33v-475q0 -179 87.5 -263.5t227.5 -84.5q68 0 123 19t99 59t68.5 109t24.5 161v475q0 33 37 33h31q35 0 35 -33v-488q0 -193 -100 -303.5t-265 -126.5v-450q0 -33 -37 -33h-30q-35 0 -35 33v450q-165 14 -266 125t-101 305z" />
<glyph unicode="Z" horiz-adv-x="970" d="M96 35v22q0 29 15 52l651 1228h-612q-33 0 -33 37v25q0 35 33 35h696q33 0 33 -35v-23q0 -24 -15 -51l-651 -1229h633q33 0 33 -37v-24q0 -35 -33 -35h-717q-33 0 -33 35z" />
<glyph unicode="[" horiz-adv-x="663" d="M215 -172v1593q0 15 9 24t24 9h325q33 0 33 -31v-18q0 -15 -9 -24t-24 -9h-260v-1495h260q15 0 24 -9t9 -24v-18q0 -31 -33 -31h-325q-15 0 -24 9t-9 24z" />
<glyph unicode="\" horiz-adv-x="776" d="M6 1442q6 12 23 12h26q31 0 43 -29l670 -1509q9 -15 3 -27t-23 -12h-27q-29 0 -43 29l-670 1509q-8 15 -2 27z" />
<glyph unicode="]" horiz-adv-x="663" d="M57 -156q0 15 9 24t24 9h260v1495h-260q-15 0 -24 9t-9 24v18q0 31 33 31h326q15 0 24 -9t9 -24v-1593q0 -15 -9 -24t-24 -9h-326q-33 0 -33 31v18z" />
<glyph unicode="^" d="M110 671q-6 12 3 27l368 707q16 29 45 29h25q29 0 45 -29l369 -707q9 -15 2.5 -27t-23.5 -12h-31q-27 0 -43 29l-331 639l-332 -639q-16 -29 -43 -29h-31q-17 0 -23 12z" />
<glyph unicode="_" horiz-adv-x="1024" d="M0 -133h1024v-80h-1024v80z" />
<glyph unicode="`" horiz-adv-x="681" d="M229 1481.5q5 11.5 19 11.5h43q27 0 43 -31l117 -215q7 -11 2.5 -22t-17.5 -11h-30q-23 0 -39 25l-136 219q-7 12 -2 23.5z" />
<glyph unicode="a" horiz-adv-x="907" d="M113 291v10q0 149 94.5 231t236.5 82h236v138q0 135 -65 198.5t-171 63.5q-96 0 -157.5 -62.5t-61.5 -167.5q0 -30 -30 -30h-31q-33 0 -33 32q0 143 87.5 229.5t225.5 86.5q147 0 238.5 -89t91.5 -255v-436q0 -166 -91.5 -255.5t-238.5 -89.5q-140 0 -235.5 83t-95.5 231 zM209 295q0 -110 66 -169.5t169 -59.5q105 0 170.5 64t65.5 198v198h-236q-103 0 -169 -59.5t-66 -169.5v-2z" />
<glyph unicode="b" horiz-adv-x="954" d="M160 322v1099q0 33 33 33h28q15 0 24 -9t9 -24v-458q77 139 256 139q138 0 223.5 -87.5t85.5 -250.5v-442q0 -167 -91.5 -256t-238.5 -89t-238 89t-91 256zM254 328q0 -135 65 -198.5t170 -63.5t170.5 64t65.5 198v424q0 134 -65.5 198t-170.5 64t-170 -63.5t-65 -198.5 v-424z" />
<glyph unicode="c" horiz-adv-x="905" d="M133 322v436q0 166 92.5 255t239.5 89q138 0 228.5 -87.5t90.5 -232.5q0 -32 -32 -32h-31q-31 0 -31 30q0 107 -64.5 170.5t-160.5 63.5q-106 0 -171 -63.5t-65 -198.5v-424q0 -135 65 -198.5t171 -63.5q96 0 160.5 63t64.5 170q0 31 31 31h31q32 0 32 -33 q0 -145 -90.5 -232.5t-228.5 -87.5q-147 0 -239.5 89.5t-92.5 255.5z" />
<glyph unicode="d" horiz-adv-x="954" d="M133 322v442q0 163 86.5 250.5t224.5 87.5q179 0 256 -141v460q0 33 33 33h29q15 0 24 -9t9 -24v-1099q0 -167 -91.5 -256t-238.5 -89t-239.5 89t-92.5 256zM229 328q0 -135 65 -198.5t171 -63.5q105 0 170 63.5t65 198.5v424q0 135 -65 198.5t-170 63.5 q-106 0 -171 -63.5t-65 -198.5v-424z" />
<glyph unicode="e" horiz-adv-x="923" d="M133 322v436q0 166 92.5 255t239.5 89t238.5 -89t91.5 -255v-195q0 -33 -33 -33h-533v-202q0 -135 65 -198.5t171 -63.5q97 0 161 62t64 167q0 31 31 31h31q32 0 32 -33q0 -143 -89.5 -229.5t-229.5 -86.5q-147 0 -239.5 89.5t-92.5 255.5zM229 618h471v134 q0 135 -65 198.5t-170 63.5q-106 0 -171 -63.5t-65 -198.5v-134z" />
<glyph unicode="f" horiz-adv-x="620" d="M170 33v1153q0 149 72.5 212.5t212.5 63.5q53 0 94 -8q31 -6 31 -35v-22q0 -37 -33 -31q-54 8 -78 8q-106 0 -154.5 -42.5t-48.5 -155.5v-97h281q33 0 33 -32v-23q0 -33 -33 -33h-281v-958q0 -15 -9 -24t-24 -9h-30q-15 0 -24 9t-9 24z" />
<glyph unicode="g" horiz-adv-x="948" d="M131 410v348q0 166 92.5 255t239.5 89t238.5 -89t91.5 -255v-787q0 -167 -91 -253.5t-239 -86.5q-145 0 -233.5 79t-88.5 204q0 33 33 33h33q31 0 31 -31q0 -90 61.5 -144.5t163.5 -54.5q106 0 170.5 61t64.5 195v238q-75 -139 -256 -139q-138 0 -224.5 87t-86.5 251z M227 422q0 -135 65 -198.5t171 -63.5q105 0 170 63.5t65 198.5v330q0 135 -65 198.5t-170 63.5q-106 0 -171 -63.5t-65 -198.5v-330z" />
<glyph unicode="h" horiz-adv-x="987" d="M170 33v1388q0 15 9 24t24 9h30q15 0 24 -9t9 -24v-458q38 68 104 103.5t150 35.5q138 0 224.5 -87.5t86.5 -250.5v-731q0 -33 -32 -33h-29q-33 0 -33 33v719q0 135 -65 198.5t-170 63.5q-106 0 -171 -63.5t-65 -198.5v-719q0 -15 -9 -24t-24 -9h-30q-15 0 -24 9t-9 24z " />
<glyph unicode="i" horiz-adv-x="436" d="M170 33v1014q0 32 33 32h30q33 0 33 -32v-1014q0 -15 -9 -24t-24 -9h-30q-15 0 -24 9t-9 24zM170 1290v111q0 15 9 24t24 9h30q15 0 24 -9t9 -24v-111q0 -15 -9 -24t-24 -9h-30q-15 0 -24 9t-9 24z" />
<glyph unicode="j" horiz-adv-x="436" d="M-61 -287q0 15 8.5 24.5t21.5 6.5q5 -1 17.5 -3t25.5 -3.5t29 -1.5q67 0 98 37t31 123v1151q0 32 33 32h30q33 0 33 -32v-1162q0 -126 -59 -181.5t-158 -55.5q-30 0 -80 8q-30 7 -30 35v22zM170 1290v111q0 15 9 24t24 9h30q15 0 24 -9t9 -24v-111q0 -15 -9 -24t-24 -9 h-30q-15 0 -24 9t-9 24z" />
<glyph unicode="k" horiz-adv-x="937" d="M170 33v1390q0 15 9 24t24 9h30q15 0 24 -9t9 -24v-940l467 574q14 22 47 22h45q16 0 20.5 -14.5t-5.5 -24.5l-338 -399l348 -602q10 -13 3.5 -26t-24.5 -13h-41q-29 0 -40 25l-308 542l-174 -207v-327q0 -15 -9 -24t-24 -9h-30q-15 0 -24 9t-9 24z" />
<glyph unicode="l" horiz-adv-x="544" d="M162 238v1183q0 33 33 33h28q15 0 24 -9t9 -24v-1171q0 -91 35 -130.5t106 -39.5q17 0 32 1.5t28.5 3.5t19.5 3q15 3 24 -5.5t9 -25.5v-22q0 -28 -33 -35q-58 -8 -88 -8q-227 0 -227 246z" />
<glyph unicode="m" horiz-adv-x="1406" d="M156 33v770q0 146 79 222.5t209 76.5q94 0 161.5 -45t96.5 -131q29 86 97 131t164 45q129 0 208.5 -77t79.5 -222v-770q0 -33 -32 -33h-29q-33 0 -33 33v755q0 116 -56 171t-147 55t-146.5 -55t-55.5 -171v-755q0 -15 -9 -24t-24 -9h-31q-15 0 -24 9t-9 24v755 q0 116 -56 171t-148 55q-91 0 -146 -54.5t-55 -171.5v-755q0 -33 -33 -33h-29q-32 0 -32 33z" />
<glyph unicode="n" horiz-adv-x="970" d="M156 33v725q0 166 91 255t238 89t239.5 -89t92.5 -255v-725q0 -15 -9 -24t-24 -9h-30q-15 0 -24 9t-9 24v719q0 135 -65 198.5t-171 63.5q-105 0 -170 -63.5t-65 -198.5v-719q0 -33 -33 -33h-29q-32 0 -32 33z" />
<glyph unicode="o" horiz-adv-x="927" d="M133 322v436q0 166 92.5 255t239.5 89t238.5 -89t91.5 -255v-436q0 -167 -91.5 -256t-238.5 -89t-239.5 89t-92.5 256zM229 328q0 -135 65 -198.5t171 -63.5q105 0 170 63.5t65 198.5v424q0 135 -65 198.5t-170 63.5q-106 0 -171 -63.5t-65 -198.5v-424z" />
<glyph unicode="p" horiz-adv-x="954" d="M160 -313v1071q0 167 91 255.5t238 88.5t238.5 -88.5t91.5 -255.5v-443q0 -163 -85.5 -250.5t-223.5 -87.5q-86 0 -152 35t-104 103v-428q0 -15 -9 -24t-24 -9h-28q-33 0 -33 33zM254 328q0 -135 65 -198.5t170 -63.5t170.5 64t65.5 198v424q0 134 -65.5 198t-170.5 64 t-170 -63.5t-65 -198.5v-424z" />
<glyph unicode="q" horiz-adv-x="950" d="M133 315v443q0 167 92 255.5t240 88.5q147 0 238.5 -88.5t91.5 -255.5v-1071q0 -15 -9 -24t-24 -9h-29q-33 0 -33 33v432q-75 -142 -256 -142q-138 0 -224.5 87.5t-86.5 250.5zM229 328q0 -135 65 -198.5t171 -63.5q105 0 170 63.5t65 198.5v424q0 135 -65 198.5 t-170 63.5q-106 0 -171 -63.5t-65 -198.5v-424z" />
<glyph unicode="r" horiz-adv-x="604" d="M156 33v780q0 149 72.5 213t211.5 64q46 0 95 -9q30 -7 30 -34v-23q0 -17 -9 -25.5t-24 -5.5q-54 8 -77 8q-106 0 -155.5 -42.5t-49.5 -155.5v-770q0 -33 -33 -33h-29q-32 0 -32 33z" />
<glyph unicode="s" horiz-adv-x="864" d="M113 260v6q0 33 32 33h31q31 0 31 -31v-2q0 -101 63 -150.5t162 -49.5t162 48t63 148v4q0 62 -29.5 105.5t-77 68t-104.5 45t-114 44.5t-104.5 57t-77 91.5t-29.5 139.5q0 132 87 208.5t222 76.5q134 0 221.5 -77t87.5 -204v-6q0 -33 -32 -33h-31q-31 0 -31 31v2 q0 98 -60.5 148.5t-154.5 50.5t-154.5 -50.5t-60.5 -146.5v-4q0 -49 18.5 -86t49.5 -61t71.5 -43.5t85.5 -35.5t89.5 -33.5t85 -42t71.5 -56.5t49.5 -82t18.5 -113q0 -132 -90 -207.5t-232 -75.5q-140 0 -229.5 77t-89.5 206z" />
<glyph unicode="t" horiz-adv-x="632" d="M162 252v1059q0 32 33 32h30q33 0 33 -32v-232h260q33 0 33 -32v-23q0 -33 -33 -33h-260v-733q0 -100 43.5 -139t138.5 -39q24 0 78 8q33 6 33 -31v-22q0 -29 -31 -35q-41 -8 -90 -8q-132 0 -200 60t-68 200z" />
<glyph unicode="u" horiz-adv-x="970" d="M156 322v725q0 32 32 32h29q33 0 33 -32v-719q0 -135 65 -198.5t170 -63.5q106 0 171 63.5t65 198.5v719q0 32 33 32h30q33 0 33 -32v-725q0 -166 -92.5 -255.5t-239.5 -89.5t-238 89.5t-91 255.5z" />
<glyph unicode="v" horiz-adv-x="890" d="M72 1042q-5 16 2 26.5t24 10.5h33q34 0 39 -26l276 -963l277 963q8 26 41 26h31q33 0 26 -37l-299 -999q-12 -43 -57 -43h-39q-45 0 -57 43z" />
<glyph unicode="w" horiz-adv-x="1406" d="M156 276v771q0 32 32 32h29q33 0 33 -32v-756q0 -116 55 -170.5t146 -54.5q92 0 148 54.5t56 170.5v756q0 32 33 32h31q33 0 33 -32v-756q0 -116 55.5 -170.5t146.5 -54.5q92 0 147.5 54.5t55.5 170.5v756q0 32 33 32h29q32 0 32 -32v-771q0 -145 -79.5 -222t-208.5 -77 q-96 0 -164 44.5t-97 130.5q-29 -86 -96.5 -130.5t-161.5 -44.5q-130 0 -209 76.5t-79 222.5z" />
<glyph unicode="x" horiz-adv-x="892" d="M86 13q-6 13 2 26l297 512l-283 489q-8 14 -2 26.5t23 12.5h41q30 0 41 -24l241 -437l244 437q11 24 41 24h37q18 0 24 -12.5t-4 -26.5l-284 -489l299 -512q10 -13 3.5 -26t-24.5 -13h-39q-30 0 -41 25l-258 460l-256 -460q-11 -25 -43 -25h-36q-17 0 -23 13z" />
<glyph unicode="y" horiz-adv-x="985" d="M154 410v637q0 32 32 32h29q33 0 33 -32v-625q0 -135 65 -198.5t170 -63.5q106 0 171 63.5t65 198.5v625q0 32 33 32h30q33 0 33 -32v-1076q0 -167 -92 -253.5t-240 -86.5q-144 0 -231.5 79t-87.5 204q0 33 33 33h30q31 0 31 -31q0 -90 62.5 -144.5t162.5 -54.5 q107 0 171.5 61t64.5 195v236q-79 -137 -254 -137q-138 0 -224.5 87t-86.5 251z" />
<glyph unicode="z" horiz-adv-x="829" d="M86 33v22q0 22 12 43l520 893h-479q-33 0 -33 33v23q0 32 33 32h559q33 0 33 -32v-23q0 -22 -12 -43l-520 -893h503q33 0 33 -33v-22q0 -15 -9 -24t-24 -9h-583q-15 0 -24 9t-9 24z" />
<glyph unicode="{" horiz-adv-x="628" d="M49 614v21q0 13 8.5 22t22.5 9q63 0 96 32.5t33 108.5v350q0 157 78.5 227t226.5 70h18q31 0 31 -31v-18q0 -15 -8.5 -24t-22.5 -9h-10q-116 0 -166.5 -50t-50.5 -167v-328q0 -166 -110 -202q110 -39 110 -203v-328q0 -117 50.5 -167t166.5 -50h10q14 0 22.5 -9t8.5 -24 v-18q0 -31 -31 -31h-18q-148 0 -226.5 70t-78.5 227v350q0 76 -33 109t-96 33q-14 0 -22.5 8.5t-8.5 21.5z" />
<glyph unicode="|" horiz-adv-x="1024" d="M469 -481v1986q0 31 31 31h24q31 0 31 -31v-1986q0 -31 -31 -31h-24q-31 0 -31 31z" />
<glyph unicode="}" horiz-adv-x="628" d="M66 -156q0 15 8 24t22 9h10q116 0 167 50.5t51 166.5v328q0 164 110 203q-110 36 -110 202v328q0 116 -51 166.5t-167 50.5h-10q-14 0 -22 9t-8 24v18q0 31 30 31h19q148 0 226.5 -70t78.5 -227v-350q0 -76 33 -108.5t96 -32.5q13 0 22 -9t9 -22v-21q0 -13 -8.5 -21.5 t-22.5 -8.5q-63 0 -96 -33t-33 -109v-350q0 -157 -78.5 -227t-226.5 -70h-19q-30 0 -30 31v18z" />
<glyph unicode="~" d="M102 643v43q0 24 23 47q88 88 207 88q67 0 141.5 -28.5t146 -57t130.5 -28.5q56 0 97.5 23.5t88.5 74.5q12 11 25.5 7t13.5 -19v-43q0 -25 -23 -45q-87 -91 -207 -91q-54 0 -113 18t-102.5 39.5t-99 39.5t-102.5 18q-56 0 -98 -24t-89 -74q-12 -10 -25.5 -6t-13.5 18z " />
<glyph unicode="&#xa2;" d="M170 514v406q0 161 89.5 254.5t238.5 105.5v139q0 31 30 31h29q31 0 31 -31v-139q141 -12 229 -97.5t88 -219.5q0 -33 -33 -33h-32q-31 0 -31 31q0 107 -77 170t-189 63q-120 0 -198.5 -70t-78.5 -211v-393q0 -142 78.5 -211t198.5 -69q112 0 189 63t77 170q0 31 31 31 h32q33 0 33 -33q0 -134 -88 -219.5t-229 -97.5v-140q0 -30 -31 -30h-29q-30 0 -30 30v140q-150 12 -239 105t-89 255z" />
<glyph unicode="&#xa3;" d="M133 33v26q0 20 19 39q94 71 149 165t55 200q0 27 -2 41h-190q-14 0 -22.5 9t-8.5 24v26q0 31 31 31h174q-14 48 -44.5 108.5t-55.5 105.5t-44.5 117t-19.5 152v10q0 169 107 269t278 100t278 -100t107 -269q0 -34 -33 -34h-32q-33 0 -33 32q0 133 -80 206t-207 73 t-207 -73t-80 -204v-10q0 -73 19.5 -141t45 -113.5t54.5 -109t43 -119.5h365q32 0 32 -31v-26q0 -33 -32 -33h-350q2 -14 2 -41q0 -111 -53 -208t-134 -163h627q15 0 24 -9t9 -24v-26q0 -15 -9 -24t-24 -9h-725q-15 0 -24 9t-9 24z" />
<glyph unicode="&#xa5;" d="M135 967v434q0 15 9 24t24 9h33q32 0 32 -33v-424q0 -170 83.5 -249t222.5 -79t222 79t83 249v424q0 15 9 24t24 9h32q15 0 24 -9t9 -24v-434q0 -185 -96.5 -289.5t-257.5 -118.5v-194h280q33 0 33 -33v-27q0 -15 -9 -24t-24 -9h-280v-239q0 -15 -9 -24t-24 -9h-33 q-15 0 -24 9t-9 24v239h-280q-15 0 -24 9t-9 24v27q0 33 33 33h280v194q-162 14 -258 118.5t-96 289.5z" />
<glyph unicode="&#xa8;" horiz-adv-x="681" d="M125 1288v66q0 32 33 32h63q33 0 33 -32v-66q0 -33 -33 -33h-63q-15 0 -24 9t-9 24zM426 1288v66q0 32 35 32h63q33 0 33 -32v-66q0 -15 -9 -24t-24 -9h-63q-35 0 -35 33z" />
<glyph unicode="&#xa9;" horiz-adv-x="1361" d="M137 547v340q0 138 41 248.5t114 182t172 109t216 37.5q118 0 217.5 -37.5t172.5 -109t114 -182t41 -248.5v-340q0 -138 -41 -248.5t-114 -182t-172.5 -109.5t-217.5 -38q-117 0 -216 38t-172 109.5t-114 182t-41 248.5zM217 551q0 -127 35 -224.5t98.5 -158.5t146.5 -92 t183 -31q208 0 336.5 128.5t128.5 377.5v332q0 249 -128.5 377.5t-336.5 128.5q-100 0 -183 -31t-146.5 -92t-98.5 -158.5t-35 -224.5v-332zM438 565v303q0 125 67 191.5t179 66.5q105 0 171.5 -66t66.5 -167v-2q0 -23 -23 -23h-31q-24 0 -24 23q0 71 -45 115.5t-115 44.5 q-77 0 -122.5 -45t-45.5 -140v-299q0 -95 45.5 -139.5t122.5 -44.5q70 0 115 44.5t45 115.5q0 22 24 22h31q23 0 23 -22v-2q0 -101 -66.5 -167.5t-171.5 -66.5q-112 0 -179 66.5t-67 191.5z" />
<glyph unicode="&#xab;" horiz-adv-x="1005" d="M133 539q0 20 17 47l299 391q14 20 40 20h41q15 0 19.5 -13.5t-4.5 -25.5l-318 -419l318 -420q9 -12 4.5 -25.5t-19.5 -13.5h-41q-26 0 -40 20l-299 392q-17 27 -17 47zM453 539q0 21 16 47l299 391q14 20 41 20h41q15 0 19 -13.5t-5 -25.5l-317 -419l317 -420 q9 -12 5 -25.5t-19 -13.5h-41q-27 0 -41 20l-299 392q-16 26 -16 47z" />
<glyph unicode="&#xad;" horiz-adv-x="671" d="M86 608v29q0 33 31 33h438q15 0 24 -9t9 -24v-29q0 -15 -9 -24t-24 -9h-438q-31 0 -31 33z" />
<glyph unicode="&#xae;" horiz-adv-x="1361" d="M137 547v340q0 138 41 248.5t114 182t172 109t216 37.5q118 0 217.5 -37.5t172.5 -109t114 -182t41 -248.5v-340q0 -138 -41 -248.5t-114 -182t-172.5 -109.5t-217.5 -38q-117 0 -216 38t-172 109.5t-114 182t-41 248.5zM217 551q0 -127 35 -224.5t98.5 -158.5t146.5 -92 t183 -31q208 0 336.5 128.5t128.5 377.5v332q0 249 -128.5 377.5t-336.5 128.5q-100 0 -183 -31t-146.5 -92t-98.5 -158.5t-35 -224.5v-332zM453 346v741q0 27 24 27h232q93 0 147.5 -51.5t54.5 -151.5v-32q0 -136 -104 -177q113 -45 113 -184v-172q0 -12 -7.5 -19.5 t-19.5 -7.5h-27q-26 0 -26 27v174q0 148 -144 148h-166v-322q0 -27 -26 -27h-27q-24 0 -24 27zM530 739h172q132 0 132 135v31q0 133 -132 133h-172v-299z" />
<glyph unicode="&#xb4;" horiz-adv-x="681" d="M228.5 1225q-4.5 11 2.5 22l117 215q16 31 43 31h43q14 0 19 -11.5t-2 -23.5l-136 -219q-16 -25 -39 -25h-30q-13 0 -17.5 11z" />
<glyph unicode="&#xb8;" horiz-adv-x="681" d="M182 -264q0 14 9 18.5t20 -4.5q41 -41 102 -41q56 0 83.5 38t27.5 101q0 95 -35 175h68q43 -85 43 -183q0 -92 -46 -150.5t-141 -58.5q-66 0 -112 35q-19 14 -19 41v29z" />
<glyph unicode="&#xbb;" horiz-adv-x="1005" d="M140.5 93.5q-4.5 13.5 4.5 25.5l318 420l-318 419q-9 12 -4.5 25.5t19.5 13.5h41q27 0 41 -20l299 -391q16 -26 16 -47t-16 -47l-299 -392q-14 -20 -41 -20h-41q-15 0 -19.5 13.5zM460 93.5q-4 13.5 5 25.5l317 420l-317 419q-9 12 -5 25.5t19 13.5h41q27 0 41 -20 l299 -391q17 -27 17 -47t-17 -47l-299 -392q-14 -20 -41 -20h-41q-15 0 -19 13.5z" />
<glyph unicode="&#xc2;" horiz-adv-x="1169" d="M176 33v999q0 205 114 314.5t296 109.5q181 0 294 -109.5t113 -314.5v-999q0 -33 -35 -33h-30q-35 0 -35 33v483h-614v-483q0 -33 -37 -33h-31q-35 0 -35 33zM279 612h614v408q0 175 -85 257.5t-222 82.5q-138 0 -222.5 -82t-84.5 -258v-408zM388.5 1560q-4.5 10 2.5 21 l113 166q20 27 51 27h61q32 0 52 -27l112 -166q7 -11 3 -21t-17 -10h-31q-22 0 -41 23l-108 139l-109 -139q-19 -23 -41 -23h-30q-13 0 -17.5 10z" />
<glyph unicode="&#xc7;" horiz-adv-x="1085" d="M154 401v631q0 205 112 314.5t293 109.5q175 0 286 -109.5t111 -299.5v-5q0 -19 -7.5 -26.5t-26.5 -7.5h-33q-33 0 -33 32q0 157 -84 238.5t-213 81.5q-65 0 -119 -18.5t-96.5 -58t-66 -106.5t-23.5 -157v-606q0 -90 23.5 -157t66 -106.5t96.5 -58t119 -18.5 q129 0 213 81t84 238q0 33 33 33h33q19 0 26.5 -8t7.5 -27v-4q0 -163 -83.5 -267.5t-221.5 -131.5q27 -71 27 -148q0 -92 -45.5 -150.5t-140.5 -58.5q-67 0 -113 35q-19 14 -19 41v29q0 14 9 18.5t20 -4.5q41 -41 103 -41q56 0 83 37.5t27 101.5q0 71 -18 129h-25 q-181 0 -293 109.5t-112 314.5z" />
<glyph unicode="&#xce;" horiz-adv-x="489" d="M48.5 1560q-4.5 10 2.5 21l113 166q20 27 51 27h61q32 0 52 -27l112 -166q7 -11 3 -21t-17 -10h-31q-22 0 -41 23l-108 139l-109 -139q-19 -23 -41 -23h-30q-13 0 -17.5 10zM195 33v1368q0 33 34 33h31q35 0 35 -33v-1368q0 -33 -35 -33h-31q-34 0 -34 33z" />
<glyph unicode="&#xd6;" horiz-adv-x="1122" d="M154 401v631q0 205 112.5 314.5t294.5 109.5t295 -109.5t113 -314.5v-631q0 -205 -113 -314.5t-295 -109.5t-294.5 109.5t-112.5 314.5zM254 414q0 -175 85 -257.5t222 -82.5t222 82.5t85 257.5v606q0 175 -85 257.5t-222 82.5t-222 -82.5t-85 -257.5v-606zM344 1614v65 q0 33 33 33h63q33 0 33 -33v-65q0 -33 -33 -33h-63q-15 0 -24 9t-9 24zM645 1614v65q0 33 35 33h63q33 0 33 -33v-65q0 -15 -9 -24t-24 -9h-63q-35 0 -35 33z" />
<glyph unicode="&#xdb;" horiz-adv-x="1169" d="M176 401v1000q0 33 35 33h31q37 0 37 -33v-987q0 -176 84.5 -258t222.5 -82q137 0 222 82.5t85 257.5v987q0 33 35 33h30q35 0 35 -33v-1000q0 -205 -113 -314.5t-294 -109.5q-182 0 -296 109.5t-114 314.5zM388.5 1560q-4.5 10 2.5 21l113 166q20 27 51 27h61 q32 0 52 -27l112 -166q7 -11 3 -21t-17 -10h-31q-22 0 -41 23l-108 139l-109 -139q-19 -23 -41 -23h-30q-13 0 -17.5 10z" />
<glyph unicode="&#xdc;" horiz-adv-x="1169" d="M176 401v1000q0 33 35 33h31q37 0 37 -33v-987q0 -176 84.5 -258t222.5 -82q137 0 222 82.5t85 257.5v987q0 33 35 33h30q35 0 35 -33v-1000q0 -205 -113 -314.5t-294 -109.5q-182 0 -296 109.5t-114 314.5zM369 1614v65q0 33 32 33h64q33 0 33 -33v-65q0 -33 -33 -33 h-64q-32 0 -32 33zM670 1614v65q0 33 35 33h63q33 0 33 -33v-65q0 -15 -9 -24t-24 -9h-63q-35 0 -35 33z" />
<glyph unicode="&#xe2;" horiz-adv-x="907" d="M113 291v10q0 149 94.5 231t236.5 82h236v138q0 135 -65 198.5t-171 63.5q-96 0 -157.5 -62.5t-61.5 -167.5q0 -30 -30 -30h-31q-33 0 -33 32q0 143 87.5 229.5t225.5 86.5q147 0 238.5 -89t91.5 -255v-436q0 -166 -91.5 -255.5t-238.5 -89.5q-140 0 -235.5 83t-95.5 231 zM209 295q0 -110 66 -169.5t169 -59.5q105 0 170.5 64t65.5 198v198h-236q-103 0 -169 -59.5t-66 -169.5v-2zM258 1225q-5 11 2 22l121 217q19 29 53 29h43q32 0 51 -29l121 -217q7 -11 2 -22t-18 -11h-25q-28 0 -41 25l-112 184l-111 -184q-8 -14 -17 -19.5t-26 -5.5h-25 q-13 0 -18 11z" />
<glyph unicode="&#xe7;" horiz-adv-x="905" d="M133 322v436q0 166 92.5 255t239.5 89q138 0 228.5 -87.5t90.5 -232.5q0 -32 -32 -32h-31q-31 0 -31 30q0 107 -64.5 170.5t-160.5 63.5q-106 0 -171 -63.5t-65 -198.5v-424q0 -135 65 -198.5t171 -63.5q96 0 160.5 63t64.5 170q0 31 31 31h31q32 0 32 -33 q0 -118 -62 -199t-165 -108q29 -76 29 -150q0 -92 -46 -150.5t-141 -58.5q-66 0 -112 35q-19 14 -19 41v29q0 14 9 18.5t20 -4.5q41 -41 102 -41q56 0 83.5 38t27.5 101q0 72 -18 132q-12 -3 -27 -3q-147 0 -239.5 89.5t-92.5 255.5z" />
<glyph unicode="&#xee;" horiz-adv-x="436" d="M23 1225q-5 11 2 22l120 217q19 29 54 29h43q32 0 51 -29l121 -217q6 -11 1 -22t-18 -11h-24q-29 0 -41 25l-113 184l-110 -184q-8 -14 -17 -19.5t-26 -5.5h-25q-13 0 -18 11zM170 33v1014q0 32 33 32h30q33 0 33 -32v-1014q0 -15 -9 -24t-24 -9h-30q-15 0 -24 9t-9 24z " />
<glyph unicode="&#xf6;" horiz-adv-x="927" d="M133 322v436q0 166 92.5 255t239.5 89t238.5 -89t91.5 -255v-436q0 -167 -91.5 -256t-238.5 -89t-239.5 89t-92.5 256zM229 328q0 -135 65 -198.5t171 -63.5q105 0 170 63.5t65 198.5v424q0 135 -65 198.5t-170 63.5q-106 0 -171 -63.5t-65 -198.5v-424zM248 1288v66 q0 32 33 32h63q33 0 33 -32v-66q0 -33 -33 -33h-63q-15 0 -24 9t-9 24zM549 1288v66q0 32 35 32h63q33 0 33 -32v-66q0 -15 -9 -24t-24 -9h-63q-35 0 -35 33z" />
<glyph unicode="&#xfb;" horiz-adv-x="970" d="M156 322v725q0 32 32 32h29q33 0 33 -32v-719q0 -135 65 -198.5t170 -63.5q106 0 171 63.5t65 198.5v719q0 32 33 32h30q33 0 33 -32v-725q0 -166 -92.5 -255.5t-239.5 -89.5t-238 89.5t-91 255.5zM289 1225q-5 11 2 22l121 217q19 29 53 29h43q32 0 51 -29l121 -217 q7 -11 2 -22t-18 -11h-25q-29 0 -41 25l-113 184l-110 -184q-8 -14 -17 -19.5t-26 -5.5h-25q-13 0 -18 11z" />
<glyph unicode="&#xfc;" horiz-adv-x="970" d="M156 322v725q0 32 32 32h29q33 0 33 -32v-719q0 -135 65 -198.5t170 -63.5q106 0 171 63.5t65 198.5v719q0 32 33 32h30q33 0 33 -32v-725q0 -166 -92.5 -255.5t-239.5 -89.5t-238 89.5t-91 255.5zM268 1288v66q0 32 33 32h64q17 0 24.5 -7.5t7.5 -24.5v-66 q0 -33 -32 -33h-64q-15 0 -24 9t-9 24zM569 1288v66q0 32 35 32h64q32 0 32 -32v-66q0 -33 -32 -33h-64q-35 0 -35 33z" />
<glyph unicode="&#x11e;" horiz-adv-x="1097" d="M154 401v631q0 205 112 314.5t293 109.5q175 0 286 -109.5t111 -299.5v-5q0 -19 -7.5 -26.5t-26.5 -7.5h-33q-33 0 -33 32q0 157 -84 238.5t-213 81.5q-65 0 -119 -18.5t-96.5 -58t-66 -106.5t-23.5 -157v-606q0 -175 85 -257.5t222 -82.5t222 82.5t85 257.5v161h-221 q-33 0 -33 37v25q0 35 33 35h289q33 0 33 -35v-236q0 -205 -113 -314.5t-295 -109.5t-294.5 109.5t-112.5 314.5zM348 1726q0 33 31 33h20q27 0 27 -26q2 -46 34 -72.5t99 -26.5t99 26.5t34 72.5q0 26 27 26h20q31 0 31 -33q0 -79 -56 -124.5t-155 -45.5t-155 45.5 t-56 124.5z" />
<glyph unicode="&#x11f;" horiz-adv-x="948" d="M131 410v348q0 166 92.5 255t239.5 89t238.5 -89t91.5 -255v-787q0 -167 -91 -253.5t-239 -86.5q-145 0 -233.5 79t-88.5 204q0 33 33 33h33q31 0 31 -31q0 -90 61.5 -144.5t163.5 -54.5q106 0 170.5 61t64.5 195v238q-75 -139 -256 -139q-138 0 -224.5 87t-86.5 251z M227 422q0 -135 65 -198.5t171 -63.5q105 0 170 63.5t65 198.5v330q0 135 -65 198.5t-170 63.5q-106 0 -171 -63.5t-65 -198.5v-330zM252 1444q0 31 31 31h18q29 0 29 -29q0 -62 33.5 -100.5t99.5 -38.5t99.5 38.5t33.5 100.5q0 29 29 29h18q31 0 31 -31q0 -100 -58 -158.5 t-153 -58.5t-153 58.5t-58 158.5z" />
<glyph unicode="&#x130;" horiz-adv-x="489" d="M180 1614v65q0 33 33 33h63q33 0 33 -33v-65q0 -15 -9 -24t-24 -9h-63q-15 0 -24 9t-9 24zM195 33v1368q0 33 34 33h31q35 0 35 -33v-1368q0 -33 -35 -33h-31q-34 0 -34 33z" />
<glyph unicode="&#x131;" horiz-adv-x="436" d="M170 33v1014q0 32 33 32h30q33 0 33 -32v-1014q0 -15 -9 -24t-24 -9h-30q-15 0 -24 9t-9 24z" />
<glyph unicode="&#x15e;" horiz-adv-x="1040" d="M125 346v12q0 33 35 33h33q34 0 34 -33v-6q0 -143 81 -210.5t214 -67.5q132 0 213.5 66.5t81.5 207.5v2q0 66 -23.5 117.5t-63 84.5t-90.5 60t-107.5 49.5t-113 46t-107.5 55.5t-90.5 73.5t-63 104.5t-23.5 144v2q0 175 107 272t278 97t278 -97t107 -272v-10 q0 -35 -37 -35h-30q-35 0 -35 33v4q0 142 -78 211.5t-205 69.5q-128 0 -206 -67.5t-78 -207.5v-2q0 -66 23.5 -117t63 -84.5t90.5 -60t107.5 -48.5t113 -45.5t107.5 -55.5t90.5 -73.5t63 -105.5t23.5 -145v-2q0 -151 -81.5 -243.5t-220.5 -116.5q27 -79 27 -146 q0 -92 -45.5 -150.5t-140.5 -58.5q-67 0 -113 35q-18 13 -18 41v29q0 14 9 18.5t19 -4.5q41 -41 103 -41q56 0 83 37.5t27 101.5q0 72 -18 132q-15 -3 -29 -3q-178 0 -286.5 96.5t-108.5 272.5z" />
<glyph unicode="&#x15f;" horiz-adv-x="864" d="M113 260v6q0 33 32 33h31q31 0 31 -31v-2q0 -101 63 -150.5t162 -49.5t162 48t63 148v4q0 62 -29.5 106t-77 69.5t-104.5 46t-114 45t-104.5 57t-77 90t-29.5 137.5q0 132 87 208.5t222 76.5q134 0 221.5 -77t87.5 -204v-6q0 -33 -32 -33h-31q-31 0 -31 31v2 q0 98 -60.5 148.5t-154.5 50.5t-154.5 -50.5t-60.5 -146.5v-4q0 -55 23 -96t61 -65t86.5 -46t99 -38t99 -42t86.5 -57.5t61 -85t23 -123.5q0 -107 -60.5 -177.5t-163.5 -92.5q29 -79 29 -150q0 -92 -45.5 -150.5t-140.5 -58.5q-67 0 -113 35q-18 13 -18 41v29q0 14 9 18.5 t19 -4.5q41 -41 103 -41q56 0 83 37.5t27 101.5q0 72 -18 132q-15 -3 -33 -3q-140 0 -229.5 77t-89.5 206z" />
<glyph unicode="&#x2c6;" horiz-adv-x="681" d="M144 1225q-5 11 1 22l121 217q19 29 53 29h43q33 0 52 -29l121 -217q6 -11 1 -22t-18 -11h-24q-28 0 -41 25l-113 184l-111 -184q-8 -14 -17 -19.5t-26 -5.5h-24q-13 0 -18 11z" />
<glyph unicode="&#x2da;" horiz-adv-x="681" d="M186 1358q0 65 45 107t109 42t109 -42t45 -107t-45 -106.5t-109 -41.5t-109 41.5t-45 106.5zM254 1358q0 -36 25 -60t61 -24t61 24t25 60q0 37 -25 60.5t-61 23.5t-61 -23.5t-25 -60.5z" />
<glyph unicode="&#x2dc;" horiz-adv-x="681" d="M133 1262v34q0 27 17 47q43 56 102 56q37 0 68.5 -19.5t57.5 -39t52 -19.5q18 0 34 10.5t23 20.5t23 34q5 8 14.5 10t17 -3.5t7.5 -16.5v-33q0 -26 -17 -49q-43 -53 -102 -53q-37 0 -68.5 19.5t-57.5 39t-52 19.5q-18 0 -33.5 -11t-23 -21.5t-23.5 -35.5 q-8 -11 -23.5 -7.5t-15.5 18.5z" />
<glyph unicode="&#x2000;" horiz-adv-x="887" />
<glyph unicode="&#x2001;" horiz-adv-x="1774" />
<glyph unicode="&#x2002;" horiz-adv-x="887" />
<glyph unicode="&#x2003;" horiz-adv-x="1774" />
<glyph unicode="&#x2004;" horiz-adv-x="591" />
<glyph unicode="&#x2005;" horiz-adv-x="443" />
<glyph unicode="&#x2006;" horiz-adv-x="295" />
<glyph unicode="&#x2007;" horiz-adv-x="295" />
<glyph unicode="&#x2008;" horiz-adv-x="221" />
<glyph unicode="&#x2009;" horiz-adv-x="354" />
<glyph unicode="&#x200a;" horiz-adv-x="98" />
<glyph unicode="&#x2010;" horiz-adv-x="671" d="M86 608v29q0 33 31 33h438q15 0 24 -9t9 -24v-29q0 -15 -9 -24t-24 -9h-438q-31 0 -31 33z" />
<glyph unicode="&#x2011;" horiz-adv-x="671" d="M86 608v29q0 33 31 33h438q15 0 24 -9t9 -24v-29q0 -15 -9 -24t-24 -9h-438q-31 0 -31 33z" />
<glyph unicode="&#x2012;" horiz-adv-x="671" d="M86 608v29q0 33 31 33h438q15 0 24 -9t9 -24v-29q0 -15 -9 -24t-24 -9h-438q-31 0 -31 33z" />
<glyph unicode="&#x2013;" horiz-adv-x="1024" d="M61 612v23q0 31 31 31h840q31 0 31 -31v-23q0 -32 -31 -32h-840q-31 0 -31 32z" />
<glyph unicode="&#x2014;" horiz-adv-x="2048" d="M61 612v23q0 31 31 31h1864q31 0 31 -31v-23q0 -32 -31 -32h-1864q-31 0 -31 32z" />
<glyph unicode="&#x2018;" horiz-adv-x="462" d="M172 1044l100 365q7 25 31 25h23q12 0 18.5 -7.5t3.5 -19.5l-63 -369q-3 -32 -37 -32h-51q-33 0 -25 38z" />
<glyph unicode="&#x2019;" horiz-adv-x="462" d="M115 1032l63 369q3 33 37 33h51q34 0 25 -39l-101 -365q-7 -24 -30 -24h-23q-12 0 -18.5 7t-3.5 19z" />
<glyph unicode="&#x201a;" horiz-adv-x="462" d="M115 -236l63 369q3 33 37 33h51q34 0 25 -39l-101 -365q-7 -24 -30 -24h-23q-12 0 -18.5 7t-3.5 19z" />
<glyph unicode="&#x201c;" horiz-adv-x="724" d="M172 1044l100 365q7 25 31 25h23q12 0 18.5 -7.5t3.5 -19.5l-63 -369q-3 -32 -37 -32h-51q-33 0 -25 38zM434 1044l101 365q7 25 30 25h23q12 0 18.5 -7.5t3.5 -19.5l-63 -369q-3 -32 -37 -32h-51q-33 0 -25 38z" />
<glyph unicode="&#x201d;" horiz-adv-x="724" d="M115 1032l63 369q3 33 37 33h51q34 0 25 -39l-101 -365q-7 -24 -30 -24h-23q-12 0 -18.5 7t-3.5 19zM377 1032l63 369q3 33 37 33h51q34 0 25 -39l-100 -365q-7 -24 -31 -24h-23q-12 0 -18.5 7t-3.5 19z" />
<glyph unicode="&#x201e;" horiz-adv-x="724" d="M115 -236l63 369q3 33 37 33h51q34 0 25 -39l-101 -365q-7 -24 -30 -24h-23q-12 0 -18.5 7t-3.5 19zM377 -236l63 369q3 33 37 33h51q34 0 25 -39l-100 -365q-7 -24 -31 -24h-23q-12 0 -18.5 7t-3.5 19z" />
<glyph unicode="&#x2026;" horiz-adv-x="2048" d="M334 33v100q0 33 33 33h71q33 0 33 -33v-100q0 -15 -9 -24t-24 -9h-71q-15 0 -24 9t-9 24zM954 33v100q0 33 33 33h72q33 0 33 -33v-100q0 -15 -9 -24t-24 -9h-72q-15 0 -24 9t-9 24zM1575 33v100q0 33 33 33h71q33 0 33 -33v-100q0 -15 -9 -24t-24 -9h-71q-15 0 -24 9 t-9 24z" />
<glyph unicode="&#x202f;" horiz-adv-x="354" />
<glyph unicode="&#x2039;" horiz-adv-x="686" d="M133 539q0 20 17 47l299 391q14 20 40 20h41q15 0 19.5 -13.5t-4.5 -25.5l-318 -419l318 -420q9 -12 4.5 -25.5t-19.5 -13.5h-41q-26 0 -40 20l-299 392q-17 27 -17 47z" />
<glyph unicode="&#x203a;" horiz-adv-x="686" d="M140.5 93.5q-4.5 13.5 4.5 25.5l318 420l-318 419q-9 12 -4.5 25.5t19.5 13.5h41q27 0 41 -20l299 -391q16 -26 16 -47t-16 -47l-299 -392q-14 -20 -41 -20h-41q-15 0 -19.5 13.5z" />
<glyph unicode="&#x205f;" horiz-adv-x="443" />
<glyph unicode="&#x20ac;" d="M96 539v30q0 31 31 31h88v234h-88q-31 0 -31 30v31q0 29 31 29h88v163q0 170 106 269.5t277 99.5t277 -98.5t106 -265.5q0 -35 -33 -35h-33q-32 0 -32 33v2q0 129 -79 200.5t-206 71.5t-206 -72t-79 -205v-163h326q31 0 31 -29v-31q0 -30 -31 -30h-326v-234h326 q31 0 31 -31v-30q0 -29 -31 -29h-326v-166q0 -132 79 -204t206 -72t206 71.5t79 200.5v2q0 33 32 33h33q15 0 24 -9t9 -24q0 -168 -106 -267.5t-277 -99.5t-277 100t-106 271v164h-88q-31 0 -31 29z" />
<glyph unicode="&#x2122;" horiz-adv-x="1472" d="M39 1384v23q0 12 7.5 19.5t19.5 7.5h354q26 0 26 -27v-23q0 -26 -26 -26h-137v-668q0 -26 -27 -26h-27q-26 0 -26 26v668h-137q-27 0 -27 26zM555 690v547q0 104 53.5 161.5t153.5 57.5q138 0 180 -106q45 106 182 106q100 0 154.5 -57.5t54.5 -161.5v-547q0 -26 -26 -26 h-27q-27 0 -27 26v533q0 157 -135 157t-135 -157v-533q0 -26 -27 -26h-26q-27 0 -27 26v533q0 157 -135 157t-135 -157v-533q0 -26 -25 -26h-26q-27 0 -27 26z" />
<glyph unicode="&#x25fc;" horiz-adv-x="1075" d="M0 0v1075h1075v-1075h-1075z" />
</font>
</defs>
</svg>
