<?xml version="1.0" standalone="no"?>
<!DOCTYPE svg PUBLIC "-//W3C//DTD SVG 1.1//EN" "http://www.w3.org/Graphics/SVG/1.1/DTD/svg11.dtd" >
<svg xmlns="http://www.w3.org/2000/svg" xmlns:xlink="http://www.w3.org/1999/xlink" version="1.1">
<metadata></metadata>
<defs>
<font id="yummothin" horiz-adv-x="1073" >
<font-face units-per-em="2048" ascent="1638" descent="-410" />
<missing-glyph horiz-adv-x="446" />
<glyph horiz-adv-x="0" />
<glyph horiz-adv-x="682" />
<glyph unicode=" "  horiz-adv-x="446" />
<glyph unicode="&#x09;" horiz-adv-x="446" />
<glyph unicode="&#xa0;" horiz-adv-x="446" />
<glyph unicode="!" horiz-adv-x="460" d="M178 23v96q0 22 23 22h59q23 0 23 -22v-96q0 -23 -23 -23h-59q-23 0 -23 23zM193 1411q0 23 22 23h31q22 0 22 -23l-8 -1032q0 -23 -22 -23h-15q-22 0 -22 23z" />
<glyph unicode="&#x22;" horiz-adv-x="679" d="M166 1415q0 19 22 19h39q21 0 21 -19l-12 -446q0 -21 -21 -21h-14q-21 0 -21 21zM432 1415q0 19 23 19h39q20 0 20 -19l-12 -446q0 -21 -21 -21h-14q-21 0 -21 21z" />
<glyph unicode="#" d="M70 418l2 12q3 23 24 23h150l55 528h-149q-24 0 -21 23l2 12q3 22 25 22h149l39 373q3 23 25 23h12q23 0 20 -23l-38 -373h405l39 373q3 23 25 23h12q23 0 20 -23l-39 -373h154q23 0 20 -22l-2 -12q-3 -23 -24 -23h-154l-55 -528h154q23 0 20 -23l-2 -12q-3 -23 -25 -23 h-153l-39 -372q-3 -23 -25 -23h-12q-23 0 -20 23l38 372h-405l-39 -372q-3 -23 -25 -23h-12q-23 0 -20 23l39 372h-150q-23 0 -20 23zM303 453h406l55 528h-406z" />
<glyph unicode="$" d="M160 391v4q0 23 20 23h21q22 0 22 -23q0 -68 24.5 -119t68.5 -80t99 -43t122 -14q140 0 226.5 63t86.5 191q0 63 -23.5 111t-63 78t-91 53t-108 41t-113 37t-108 45.5t-91 61.5t-63 90.5t-23.5 127.5v2q0 142 93.5 224t246.5 88v147q0 23 22 23h17q22 0 22 -23v-147 q153 -8 245.5 -88.5t92.5 -221.5v-8q0 -22 -22 -22h-19q-22 0 -22 22q0 133 -84.5 196.5t-222.5 63.5q-136 0 -221 -64t-85 -194q0 -62 23.5 -109.5t63 -77t91 -52.5t108 -40.5t113 -36t108 -45t91 -61.5t63 -91t23.5 -128v-2q0 -144 -93 -224.5t-253 -88.5v-146 q0 -22 -22 -22h-17q-22 0 -22 22v146q-161 8 -253.5 88t-92.5 223z" />
<glyph unicode="%" horiz-adv-x="1337" d="M90 979v205q0 133 69.5 202.5t184.5 69.5t184.5 -69.5t69.5 -202.5v-205q0 -133 -69.5 -202.5t-184.5 -69.5t-184.5 69.5t-69.5 202.5zM152 983q0 -217 192 -217q193 0 193 217v197q0 217 -193 217q-192 0 -192 -217v-197zM289 9q-4 9 2 20l694 1386q9 19 31 19h14 q12 0 16 -9t-2 -20l-694 -1387q-9 -18 -31 -18h-14q-12 0 -16 9zM739 250v205q0 133 69.5 202.5t184.5 69.5t184.5 -69.5t69.5 -202.5v-205q0 -133 -69.5 -203t-184.5 -70t-184.5 70t-69.5 203zM801 254q0 -217 192 -217q193 0 193 217v197q0 217 -193 217q-192 0 -192 -217 v-197z" />
<glyph unicode="&#x26;" horiz-adv-x="1122" d="M150 362v44q0 139 64.5 230.5t176.5 127.5q-106 32 -165.5 112.5t-59.5 206.5v9q0 168 103.5 266t271.5 98t271 -98t103 -266q0 -23 -22 -23h-21q-22 0 -22 23v2q0 143 -86 222t-223 79t-223.5 -79t-86.5 -222t86.5 -221t223.5 -78h90q22 0 22 -23v-14q0 -23 -22 -23h-90 q-147 0 -236.5 -84.5t-89.5 -234.5v-58q0 -150 89.5 -234.5t236.5 -84.5t236 84.5t89 234.5v91h-194q-23 0 -23 22v14q0 23 23 23h360q23 0 23 -23v-14q0 -22 -23 -22h-100v-87q0 -182 -108 -283.5t-283 -101.5t-283 101.5t-108 283.5z" />
<glyph unicode="'" horiz-adv-x="413" d="M166 1415q0 19 22 19h39q21 0 21 -19l-12 -446q0 -21 -21 -21h-14q-21 0 -21 21z" />
<glyph unicode="(" horiz-adv-x="657" d="M223 90v1069q0 155 78.5 225t226.5 70h45q23 0 23 -22v-9q0 -22 -23 -22h-43q-128 0 -184.5 -57t-56.5 -187v-1065q0 -130 56.5 -187t184.5 -57h43q23 0 23 -22v-8q0 -23 -23 -23h-45q-148 0 -226.5 70t-78.5 225z" />
<glyph unicode=")" horiz-adv-x="657" d="M61 -174q0 22 23 22h43q128 0 185 57t57 187v1065q0 130 -57 187t-185 57h-43q-23 0 -23 22v9q0 22 23 22h45q148 0 226.5 -70t78.5 -225v-1069q0 -155 -78.5 -225t-226.5 -70h-45q-23 0 -23 23v8z" />
<glyph unicode="*" d="M94 1104l10 26q10 26 31 17l379 -143l-16 405q0 25 24 25h29q24 0 24 -25l-16 -405l379 143q21 9 31 -17l10 -26q9 -24 -16 -31l-392 -110l252 -318q13 -17 -6 -33l-22 -18q-9 -8 -19 -6t-16 12l-223 340l-224 -340q-13 -23 -34 -6l-23 18q-19 16 -6 33l252 318l-391 110 q-26 7 -17 31z" />
<glyph unicode="+" d="M111 713v12q0 23 22 23h375v374q0 23 22 23h13q22 0 22 -23v-374h375q23 0 23 -23v-12q0 -23 -23 -23h-375v-375q0 -22 -22 -22h-13q-22 0 -22 22v375h-375q-22 0 -22 23z" />
<glyph unicode="," horiz-adv-x="454" d="M125 -242l63 361q3 22 25 22h41q24 0 18 -28l-94 -357q-4 -18 -22 -18h-15q-19 0 -16 20z" />
<glyph unicode="-" horiz-adv-x="673" d="M86 614v17q0 22 23 22h456q23 0 23 -22v-17q0 -22 -23 -22h-456q-23 0 -23 22z" />
<glyph unicode="." horiz-adv-x="454" d="M174 23v96q0 22 23 22h59q23 0 23 -22v-96q0 -23 -23 -23h-59q-23 0 -23 23z" />
<glyph unicode="/" horiz-adv-x="765" d="M4 -113.5q-4 9.5 2 19.5l692 1530q9 18 31 18h16q12 0 16.5 -9t-1.5 -20l-692 -1529q-10 -19 -31 -19h-17q-12 0 -16 9.5z" />
<glyph unicode="0" d="M150 381v672q0 194 108 298.5t279 104.5t279 -104.5t108 -298.5v-672q0 -194 -108 -299t-279 -105t-279 105t-108 299zM215 391q0 -180 89.5 -266t232.5 -86t232 86t89 266v651q0 180 -89 266.5t-232 86.5t-232.5 -86.5t-89.5 -266.5v-651z" />
<glyph unicode="1" d="M315 23v16q0 22 23 22h250v1301h-254q-19 0 -19 18v9q0 17 19 20l233 23q20 2 47 2h17q22 0 22 -23v-1350h250q23 0 23 -22v-16q0 -23 -23 -23h-565q-23 0 -23 23z" />
<glyph unicode="2" d="M160 23v79q0 88 24 164t65 131t94.5 103.5t112 88t117 77.5t112 79t94.5 86t65 104t24 128v12q0 158 -86.5 239t-226.5 81q-142 0 -227.5 -81t-85.5 -239v-12q0 -23 -23 -23h-20q-23 0 -23 23v10q0 180 103.5 281.5t275.5 101.5t275.5 -101.5t103.5 -281.5v-6 q0 -77 -24.5 -142.5t-65.5 -114.5t-94 -92.5t-111.5 -82t-117.5 -77.5t-112 -84.5t-94 -96.5t-65.5 -120.5t-24.5 -150.5v-45h686q23 0 23 -22v-16q0 -23 -23 -23h-729q-22 0 -22 23z" />
<glyph unicode="3" d="M145 362v11q0 22 23 22h20q23 0 23 -22v-15q0 -150 89.5 -234.5t236.5 -84.5t236 84.5t89 234.5v37q0 150 -89 235t-236 85h-131q-23 0 -23 22v15q0 22 23 22h131q137 0 223 79t86 222v19q0 143 -86 222t-223 79t-223.5 -79t-86.5 -222v-2q0 -23 -22 -23h-21 q-22 0 -22 23q0 168 103.5 266t271.5 98t271 -98t103 -266v-9q0 -128 -61 -215t-168 -123q113 -37 179.5 -128.5t66.5 -231.5v-23q0 -182 -108 -283.5t-283 -101.5t-283.5 101.5t-108.5 283.5z" />
<glyph unicode="4" d="M106 367v16q0 11 7 29l495 1003q10 19 29 19h20q12 0 17 -9t0 -20l-494 -999h615v659q0 22 22 22h21q22 0 22 -22v-659h115q22 0 22 -23v-16q0 -23 -22 -23h-115v-321q0 -23 -22 -23h-21q-22 0 -22 23v321h-666q-23 0 -23 23z" />
<glyph unicode="5" d="M154 358v15q0 22 22 22h21q22 0 22 -22v-21q0 -147 90 -230t232 -83q146 0 233.5 85.5t87.5 266.5v176q0 180 -89 266.5t-232 86.5q-111 0 -190 -51t-111 -160q-6 -19 -25 -19h-16q-23 0 -23 23l31 696q0 25 24 25h641q23 0 23 -23v-16q0 -23 -23 -23h-606l-24 -543 q49 74 128.5 113t180.5 39q168 0 272.5 -104.5t104.5 -298.5v-197q0 -196 -105.5 -300t-281.5 -104q-170 0 -278.5 101t-108.5 280z" />
<glyph unicode="6" d="M150 381v672q0 194 108 298.5t279 104.5q167 0 271.5 -97t104.5 -263v-6q0 -23 -22 -23h-21q-22 0 -22 23v12q0 134 -86 213.5t-225 79.5q-143 0 -232.5 -86.5t-89.5 -266.5v-323q45 92 131.5 140t200.5 48q168 0 272.5 -104.5t104.5 -298.5v-123q0 -194 -108 -299 t-279 -105t-279 105t-108 299zM215 391q0 -180 89.5 -266t232.5 -86t232 86t89 266v103q0 180 -89 266t-232 86t-232.5 -86t-89.5 -266v-103z" />
<glyph unicode="7" d="M135 1395v16q0 23 23 23h780q23 0 23 -23v-10q0 -11 -7 -29l-616 -1354q-9 -18 -29 -18h-20q-12 0 -17 9t0 20l617 1343h-731q-23 0 -23 23z" />
<glyph unicode="8" d="M133 352v39q0 136 66.5 225.5t181.5 126.5q-109 33 -170 117.5t-61 216.5v25q0 172 107.5 263t279.5 91t279.5 -91t107.5 -263v-25q0 -132 -62 -216.5t-172 -117.5q117 -37 183.5 -126t66.5 -226v-39q0 -181 -112 -278t-291 -97t-291.5 97t-112.5 278zM199 350 q0 -152 97.5 -231.5t240.5 -79.5t240 79.5t97 231.5v51q0 103 -48.5 176t-123 105.5t-165.5 32.5t-166 -32.5t-123.5 -105.5t-48.5 -176v-51zM215 1065q0 -76 27 -134t73.5 -91t102.5 -49.5t119 -16.5t119 16.5t102 49.5t73 91t27 134v41q0 76 -27 133.5t-73.5 90.5t-102 49 t-118.5 16q-64 0 -119.5 -16t-102 -49t-73.5 -90.5t-27 -133.5v-41z" />
<glyph unicode="9" d="M150 940v113q0 194 108 298.5t279 104.5t279 -104.5t108 -298.5v-672q0 -194 -108 -299t-279 -105q-167 0 -272 97.5t-105 263.5v6q0 23 22 23h21q22 0 22 -23v-12q0 -134 86.5 -213.5t225.5 -79.5q143 0 232 86t89 266v334q-46 -92 -133 -140t-199 -48 q-168 0 -272 104.5t-104 298.5zM215 950q0 -180 89.5 -266t232.5 -86t232 86t89 266v92q0 180 -89 266.5t-232 86.5t-232.5 -86.5t-89.5 -266.5v-92z" />
<glyph unicode=":" horiz-adv-x="454" d="M174 23v96q0 22 23 22h59q23 0 23 -22v-96q0 -23 -23 -23h-59q-23 0 -23 23zM174 899v96q0 23 23 23h59q23 0 23 -23v-96q0 -22 -23 -22h-59q-23 0 -23 22z" />
<glyph unicode=";" horiz-adv-x="454" d="M125 -242l63 361q3 22 25 22h41q24 0 18 -28l-94 -357q-4 -18 -22 -18h-15q-19 0 -16 20zM174 899v96q0 23 23 23h59q23 0 23 -23v-96q0 -22 -23 -22h-59q-23 0 -23 22z" />
<glyph unicode="&#x3c;" d="M139 713v12q0 21 21 31l743 368q11 6 20 2t9 -16v-18q0 -22 -21 -31l-694 -342l694 -342q21 -9 21 -31v-18q0 -12 -9 -16.5t-20 1.5l-743 369q-21 10 -21 31z" />
<glyph unicode="=" d="M111 492v12q0 22 22 22h807q23 0 23 -22v-12q0 -23 -23 -23h-807q-22 0 -22 23zM111 930v12q0 23 22 23h807q23 0 23 -23v-12q0 -23 -23 -23h-807q-22 0 -22 23z" />
<glyph unicode="&#x3e;" d="M139 328v18q0 22 21 31l694 342l-694 342q-21 9 -21 31v18q0 12 9.5 16t19.5 -2l743 -368q21 -10 21 -31v-12q0 -21 -21 -31l-743 -369q-10 -6 -19.5 -1.5t-9.5 16.5z" />
<glyph unicode="?" horiz-adv-x="815" d="M61 1133q0 142 90.5 232.5t233.5 90.5q144 0 234 -88t90 -254q0 -66 -19.5 -122.5t-51 -96.5t-69.5 -76.5t-75.5 -71t-69 -71.5t-51 -86t-19.5 -107v-104q0 -23 -22 -23h-15q-22 0 -22 23v102q0 63 19.5 117.5t50 94t68 75.5t75 71.5t68 73.5t50 89t19.5 110 q0 147 -72 216t-188 69q-118 0 -189 -73t-71 -191q0 -23 -23 -23h-18q-23 0 -23 23zM272 23v96q0 22 23 22h59q23 0 23 -22v-96q0 -23 -23 -23h-59q-23 0 -23 23z" />
<glyph unicode="@" horiz-adv-x="1355" d="M143 317v553q0 138 40 248t111.5 181t169 108t214.5 37t214 -37t168.5 -108t111.5 -181t40 -248v-553q0 -138 -40 -248t-111.5 -180.5t-168.5 -107.5t-214 -37t-214 37t-169 107.5t-112 180.5t-40 248zM205 324q0 -256 130 -388.5t343 -132.5t343 132.5t130 388.5v540 q0 256 -130 388t-343 132t-343 -132t-130 -388v-540zM426 399v2q0 118 72.5 182t187.5 64h178v113q0 112 -51 162.5t-137 50.5q-79 0 -130.5 -47.5t-51.5 -134.5q0 -17 -19 -17h-22q-8 0 -13.5 5t-5.5 12q0 107 69.5 173t172.5 66q113 0 181.5 -68.5t68.5 -199.5v-336 q0 -131 -68.5 -199.5t-181.5 -68.5q-105 0 -177.5 62.5t-72.5 178.5zM487 399q0 -92 52 -138t137 -46q86 0 137 50.5t51 162.5v162h-182q-89 0 -142 -48t-53 -143z" />
<glyph unicode="A" horiz-adv-x="1167" d="M184 23v1015q0 202 111 310t289 108t288.5 -108t110.5 -310v-1015q0 -23 -25 -23h-18q-25 0 -25 23v507h-663v-507q0 -23 -25 -23h-18q-25 0 -25 23zM252 594h663v434q0 186 -92 275.5t-239 89.5t-239.5 -89.5t-92.5 -275.5v-434z" />
<glyph unicode="B" horiz-adv-x="1107" d="M203 23v1388q0 23 24 23h367q186 0 274 -86t88 -277v-8q0 -143 -49.5 -222.5t-150.5 -109.5q112 -27 166.5 -108t54.5 -230v-31q0 -191 -88.5 -276.5t-274.5 -85.5h-387q-24 0 -24 23zM270 63h334q163 0 234 66.5t71 239.5v14q0 177 -73.5 245t-239.5 68h-326v-633z M270 760h310q165 0 237 66.5t72 242.5q0 169 -71.5 235t-229.5 66h-318v-610z" />
<glyph unicode="C" horiz-adv-x="1081" d="M160 395v643q0 202 110 310t287 108q170 0 279.5 -107.5t109.5 -299.5v-5q0 -22 -24 -22h-19q-24 0 -24 22q0 89 -26 157t-71.5 109.5t-102 62t-122.5 20.5q-147 0 -238.5 -89.5t-91.5 -275.5v-622q0 -186 91.5 -275.5t238.5 -89.5q66 0 122.5 20.5t102 61.5t71.5 109.5 t26 156.5q0 23 24 23h19q24 0 24 -23v-4q0 -192 -109.5 -300t-279.5 -108q-177 0 -287 108t-110 310z" />
<glyph unicode="D" horiz-adv-x="1142" d="M203 23v1388q0 23 24 23h359q87 0 158.5 -23t126 -70t84.5 -124t30 -179v-643q0 -102 -30 -179t-84.5 -123.5t-126 -69.5t-158.5 -23h-359q-24 0 -24 23zM270 63h316q72 0 129.5 17.5t104.5 55.5t72.5 106.5t25.5 163.5v622q0 77 -17.5 136t-47 97.5t-72.5 63.5t-90.5 35 t-104.5 10h-316v-1307z" />
<glyph unicode="E" horiz-adv-x="1030" d="M203 23v1388q0 23 24 23h676q23 0 23 -25v-14q0 -25 -23 -25h-633v-610h521q22 0 22 -25v-14q0 -25 -22 -25h-521v-633h633q23 0 23 -24v-14q0 -25 -23 -25h-676q-24 0 -24 23z" />
<glyph unicode="F" horiz-adv-x="946" d="M203 23v1388q0 23 24 23h639q23 0 23 -25v-14q0 -25 -23 -25h-596v-631h484q22 0 22 -24v-15q0 -24 -22 -24h-484v-653q0 -23 -24 -23h-19q-24 0 -24 23z" />
<glyph unicode="G" horiz-adv-x="1091" d="M160 395v643q0 202 110 310t287 108q170 0 279.5 -107.5t109.5 -299.5v-5q0 -22 -24 -22h-19q-24 0 -24 22q0 89 -26 157t-71.5 109.5t-102 62t-122.5 20.5q-147 0 -238.5 -89.5t-91.5 -275.5v-622q0 -186 92.5 -275.5t239.5 -89.5t239.5 89.5t92.5 275.5v186h-248 q-22 0 -22 24v15q0 24 22 24h293q22 0 22 -24v-236q0 -202 -110.5 -310t-288.5 -108t-288.5 108t-110.5 310z" />
<glyph unicode="H" horiz-adv-x="1204" d="M203 23v1388q0 23 24 23h19q24 0 24 -23v-651h664v651q0 23 24 23h19q24 0 24 -23v-1388q0 -23 -24 -23h-19q-24 0 -24 23v673h-664v-673q0 -23 -24 -23h-19q-24 0 -24 23z" />
<glyph unicode="I" horiz-adv-x="473" d="M203 23v1388q0 23 24 23h19q24 0 24 -23v-1388q0 -23 -24 -23h-19q-24 0 -24 23z" />
<glyph unicode="J" horiz-adv-x="983" d="M61 362v27q0 23 25 23h18q25 0 25 -23v-22q0 -166 83.5 -246t217.5 -80t217.5 80t83.5 246v1044q0 23 25 23h18q25 0 25 -23v-1049q0 -186 -102 -285.5t-267 -99.5t-267 99.5t-102 285.5z" />
<glyph unicode="K" horiz-adv-x="1116" d="M203 23v1388q0 23 24 23h19q24 0 24 -23v-813l666 819q14 17 31 17h28q10 0 14.5 -10t-1.5 -19l-451 -553l463 -823q6 -11 2 -20t-16 -9h-25q-24 0 -33 18l-436 781l-242 -295v-481q0 -23 -24 -23h-19q-24 0 -24 23z" />
<glyph unicode="L" horiz-adv-x="927" d="M203 23v1388q0 23 24 23h19q24 0 24 -23v-1348h582q22 0 22 -24v-14q0 -25 -22 -25h-625q-24 0 -24 23z" />
<glyph unicode="M" horiz-adv-x="1693" d="M184 23v1069q0 177 96 270.5t252 93.5q116 0 198.5 -56t115.5 -163q33 107 115.5 163t199.5 56q156 0 252 -93.5t96 -270.5v-1069q0 -23 -24 -23h-19q-24 0 -24 23v1056q0 160 -78.5 237t-204.5 77q-125 0 -201.5 -77t-76.5 -237v-1056q0 -23 -25 -23h-18q-25 0 -25 23 v1056q0 160 -76.5 237t-201.5 77q-126 0 -204.5 -77t-78.5 -237v-1056q0 -23 -25 -23h-18q-25 0 -25 23z" />
<glyph unicode="N" horiz-adv-x="1167" d="M184 23v1015q0 202 111 310t289 108t288.5 -108t110.5 -310v-1015q0 -23 -25 -23h-18q-25 0 -25 23v1005q0 186 -92 275.5t-239 89.5t-239.5 -89.5t-92.5 -275.5v-1005q0 -23 -25 -23h-18q-25 0 -25 23z" />
<glyph unicode="O" horiz-adv-x="1118" d="M160 395v643q0 202 110.5 310t288.5 108t288.5 -108t110.5 -310v-643q0 -202 -110.5 -310t-288.5 -108t-288.5 108t-110.5 310zM227 406q0 -186 92.5 -275.5t239.5 -89.5t239.5 89.5t92.5 275.5v622q0 186 -92.5 275.5t-239.5 89.5t-239.5 -89.5t-92.5 -275.5v-622z" />
<glyph unicode="P" horiz-adv-x="1071" d="M203 23v1388q0 23 24 23h357q195 0 289 -91.5t94 -291.5v-56q0 -200 -94 -291.5t-289 -91.5h-314v-589q0 -23 -24 -23h-19q-24 0 -24 23zM270 676h301q172 0 250 72.5t78 257.5v34q0 185 -78 257.5t-250 72.5h-301v-694z" />
<glyph unicode="Q" horiz-adv-x="1118" d="M160 395v643q0 202 110.5 310t288.5 108t288.5 -108t110.5 -310v-643q0 -169 -78.5 -272.5t-211.5 -132.5v-82q0 -103 43 -149t135 -46q35 0 53 6q10 3 16.5 -2t6.5 -16v-18q0 -17 -23 -27q-15 -6 -53 -6q-112 0 -179 59t-67 187v84q-21 -3 -41 -3q-178 0 -288.5 108 t-110.5 310zM227 406q0 -186 92.5 -275.5t239.5 -89.5t239.5 89.5t92.5 275.5v622q0 186 -92.5 275.5t-239.5 89.5t-239.5 -89.5t-92.5 -275.5v-622z" />
<glyph unicode="R" horiz-adv-x="1144" d="M203 23v1388q0 23 24 23h377q186 0 274.5 -86t88.5 -277v-29q0 -144 -49.5 -223.5t-151.5 -109.5q106 -28 157.5 -108t51.5 -226v-352q0 -23 -25 -23h-18q-25 0 -25 23v348q0 169 -72 237t-233 68h-332v-653q0 -23 -24 -23h-19q-24 0 -24 23zM270 739h316 q166 0 239.5 68.5t73.5 245.5v12q0 173 -71 239t-234 66h-324v-631z" />
<glyph unicode="S" horiz-adv-x="1034" d="M131 340v12q0 23 25 23h18q25 0 25 -23v-8q0 -155 88 -229t231 -74q68 0 124.5 16.5t101 51t69.5 93.5t25 138v2q0 70 -24 124.5t-64.5 90t-93 64t-110.5 51t-115.5 46.5t-110 55.5t-93 72.5t-64.5 103.5t-24 142.5v2q0 173 105 267.5t272 94.5t272 -94.5t105 -267.5v-13 q0 -22 -25 -22h-18q-25 0 -25 22v4q0 156 -85.5 232t-223.5 76q-139 0 -224 -73t-85 -228v-2q0 -70 24 -124t64.5 -89t92.5 -63t110 -50.5t116 -46t110 -55.5t92.5 -72.5t64.5 -103.5t24 -144v-2q0 -175 -106 -269t-281 -94t-281 94.5t-106 268.5z" />
<glyph unicode="T" horiz-adv-x="886" d="M53 1395v14q0 25 23 25h735q23 0 23 -25v-14q0 -25 -23 -25h-334v-1347q0 -23 -24 -23h-19q-24 0 -24 23v1347h-334q-23 0 -23 25z" />
<glyph unicode="U" horiz-adv-x="1167" d="M184 395v1016q0 23 25 23h18q25 0 25 -23v-1005q0 -186 92.5 -275.5t239.5 -89.5t239 89.5t92 275.5v1005q0 23 25 23h18q25 0 25 -23v-1016q0 -202 -110.5 -310t-288.5 -108t-289 108t-111 310z" />
<glyph unicode="V" horiz-adv-x="1064" d="M78 1407q-3 11 1.5 19t16.5 8h27q19 0 24 -19l385 -1349l390 1349q5 19 24 19h23q12 0 16.5 -8t1.5 -19l-397 -1374q-10 -33 -41 -33h-33q-31 0 -41 33z" />
<glyph unicode="W" horiz-adv-x="1693" d="M184 342v1069q0 23 25 23h18q25 0 25 -23v-1057q0 -160 78.5 -236.5t204.5 -76.5t202 76.5t76 236.5v1057q0 23 25 23h18q25 0 25 -23v-1057q0 -160 76 -236.5t202 -76.5t204.5 76.5t78.5 236.5v1057q0 23 24 23h19q24 0 24 -23v-1069q0 -177 -96 -271t-252 -94 q-118 0 -200 56t-115 164q-33 -108 -115.5 -164t-198.5 -56q-156 0 -252 94t-96 271z" />
<glyph unicode="X" horiz-adv-x="1060" d="M97.5 9q-5.5 9 0.5 20l389 700l-374 676q-6 11 -1 20t17 9h25q20 0 30 -19l346 -635l349 635q9 19 30 19h23q12 0 17 -9t-1 -20l-375 -676l390 -700q6 -11 0.5 -20t-17.5 -9h-24q-22 0 -31 18l-363 660l-360 -660q-9 -18 -31 -18h-22q-12 0 -17.5 9z" />
<glyph unicode="Y" horiz-adv-x="1097" d="M141 920v491q0 23 25 23h18q25 0 25 -23v-481q0 -97 26.5 -170.5t74 -117t107.5 -64.5t132 -21t132 21t107.5 64.5t74 117t26.5 170.5v481q0 23 24 23h19q24 0 24 -23v-491q0 -195 -102.5 -305t-269.5 -121v-471q0 -23 -25 -23h-18q-25 0 -25 23v471q-169 11 -272 120 t-103 306z" />
<glyph unicode="Z" horiz-adv-x="962" d="M100 25v12q0 16 11 35l677 1298h-645q-22 0 -22 25v14q0 25 22 25h701q22 0 22 -25v-12q0 -17 -10 -35l-678 -1299h666q22 0 22 -24v-14q0 -25 -22 -25h-721q-23 0 -23 25z" />
<glyph unicode="[" horiz-adv-x="657" d="M223 -182v1614q0 22 23 22h327q23 0 23 -22v-9q0 -22 -23 -22h-284v-1553h284q23 0 23 -22v-8q0 -23 -23 -23h-327q-23 0 -23 23z" />
<glyph unicode="\" horiz-adv-x="765" d="M4 1445q4 9 16 9h17q22 0 31 -18l692 -1530q6 -10 1.5 -19.5t-16.5 -9.5h-16q-21 0 -31 19l-692 1529q-6 11 -2 20z" />
<glyph unicode="]" horiz-adv-x="657" d="M61 -174q0 22 23 22h285v1553h-285q-23 0 -23 22v9q0 22 23 22h328q22 0 22 -22v-1614q0 -23 -22 -23h-328q-23 0 -23 23v8z" />
<glyph unicode="^" d="M115 673q-4 9 2 19l383 721q10 21 30 21h13q19 0 30 -21l383 -721q6 -10 2 -19t-16 -9h-16q-21 0 -31 20l-358 676l-359 -676q-10 -20 -31 -20h-16q-12 0 -16 9z" />
<glyph unicode="_" horiz-adv-x="1024" d="M0 -141h1024v-58h-1024v58z" />
<glyph unicode="`" horiz-adv-x="681" d="M242 1480q3 9 14 9h27q17 0 30 -23l125 -223q5 -7 2.5 -15.5t-12.5 -8.5h-18q-18 0 -29 18l-137 225q-5 9 -2 18z" />
<glyph unicode="a" horiz-adv-x="905" d="M119 287v8q0 147 94 228t229 81h260v154q0 146 -71.5 215t-188.5 69q-105 0 -174 -69.5t-69 -188.5q0 -22 -23 -22h-18q-23 0 -23 22q0 145 86 231.5t221 86.5q144 0 234 -88t90 -252v-445q0 -164 -90 -252t-234 -88q-64 0 -121.5 19.5t-103 57t-72 98t-26.5 135.5z M182 287q0 -118 74 -184t186 -66q116 0 188 70t72 215v223h-260q-112 0 -186 -66.5t-74 -185.5v-6z" />
<glyph unicode="b" horiz-adv-x="952" d="M166 317v1115q0 22 22 22h19q22 0 22 -22v-484q38 76 107.5 115t161.5 39q139 0 227 -87.5t88 -250.5v-447q0 -164 -90 -252t-234 -88t-233.5 88t-89.5 252zM229 322q0 -145 72 -215t188 -70t188.5 70t72.5 215v436q0 145 -72.5 214.5t-188.5 69.5t-188 -69.5t-72 -214.5 v-436z" />
<glyph unicode="c" horiz-adv-x="903" d="M139 317v445q0 164 90 252t234 88q135 0 224 -86.5t89 -231.5q0 -22 -22 -22h-19q-22 0 -22 22q0 119 -72 188.5t-178 69.5q-116 0 -188 -69.5t-72 -214.5v-436q0 -145 72 -215t188 -70q106 0 178 69.5t72 188.5q0 22 22 22h19q22 0 22 -22q0 -145 -89 -231.5t-224 -86.5 q-144 0 -234 88t-90 252z" />
<glyph unicode="d" horiz-adv-x="952" d="M139 317v447q0 163 88 250.5t228 87.5q91 0 160.5 -39.5t107.5 -114.5v484q0 22 22 22h19q22 0 22 -22v-1115q0 -164 -89.5 -252t-233.5 -88t-234 88t-90 252zM203 322q0 -145 72 -215t188 -70t188 70t72 215v436q0 145 -72 214.5t-188 69.5t-188 -69.5t-72 -214.5v-436z " />
<glyph unicode="e" horiz-adv-x="919" d="M139 317v445q0 164 90 252t234 88t233.5 -88t89.5 -252v-195q0 -22 -22 -22h-561v-223q0 -145 72 -215t188 -70q107 0 178.5 69.5t71.5 188.5q0 22 22 22h19q22 0 22 -22q0 -145 -88.5 -231.5t-224.5 -86.5q-144 0 -234 88t-90 252zM203 604h520v154q0 145 -72 214.5 t-188 69.5t-188 -69.5t-72 -214.5v-154z" />
<glyph unicode="f" horiz-adv-x="608" d="M178 23v1173q0 144 71 205t206 61q51 0 90 -8q22 -3 22 -24v-15q0 -23 -22 -20q-54 8 -82 8q-113 0 -167 -46t-54 -169v-109h303q22 0 22 -22v-15q0 -22 -22 -22h-303v-997q0 -23 -23 -23h-18q-23 0 -23 23z" />
<glyph unicode="g" horiz-adv-x="946" d="M137 406v356q0 164 90 252t234 88t233.5 -88t89.5 -252v-795q0 -164 -89.5 -250t-233.5 -86q-140 0 -227 77.5t-87 203.5q0 22 23 22h18q23 0 23 -22q0 -101 70 -162t180 -61q117 0 188.5 67.5t71.5 212.5v252q-37 -76 -106.5 -114.5t-161.5 -38.5q-140 0 -228 87.5 t-88 250.5zM201 412q0 -145 72 -215t188 -70t188 70t72 215v346q0 145 -72 214.5t-188 69.5t-188 -69.5t-72 -214.5v-346z" />
<glyph unicode="h" horiz-adv-x="987" d="M178 23v1409q0 22 23 22h18q23 0 23 -22v-484q38 76 107 115t161 39q139 0 227 -87.5t88 -250.5v-741q0 -23 -22 -23h-19q-22 0 -22 23v735q0 145 -72 214.5t-188 69.5t-188 -69.5t-72 -214.5v-735q0 -23 -23 -23h-18q-23 0 -23 23z" />
<glyph unicode="i" horiz-adv-x="419" d="M178 23v1034q0 22 23 22h18q23 0 23 -22v-1034q0 -23 -23 -23h-18q-23 0 -23 23zM178 1290v121q0 23 23 23h18q23 0 23 -23v-121q0 -22 -23 -22h-18q-23 0 -23 22z" />
<glyph unicode="j" horiz-adv-x="419" d="M-66 -305q0 10 7 16t16 4q5 -1 17.5 -3t27 -3.5t31.5 -1.5q76 0 110.5 40.5t34.5 137.5v1172q0 22 23 22h18q23 0 23 -22v-1182q0 -227 -207 -227q-32 0 -78 8q-23 4 -23 25v14zM178 1290v121q0 23 23 23h18q23 0 23 -23v-121q0 -22 -23 -22h-18q-23 0 -23 22z" />
<glyph unicode="k" horiz-adv-x="929" d="M178 23v1411q0 22 23 22h18q23 0 23 -22v-988l518 619q11 14 33 14h30q12 0 14 -10.5t-6 -17.5l-352 -410l365 -612q6 -11 1.5 -20t-16.5 -9h-26q-21 0 -29 16l-338 576l-194 -230v-339q0 -23 -23 -23h-18q-23 0 -23 23z" />
<glyph unicode="l" horiz-adv-x="532" d="M168 229v1203q0 22 22 22h19q22 0 22 -22v-1192q0 -101 38.5 -145t119.5 -44q12 0 84 8q23 3 23 -20v-14q0 -22 -23 -25q-54 -8 -86 -8q-219 0 -219 237z" />
<glyph unicode="m" horiz-adv-x="1398" d="M162 23v786q0 143 77.5 218t202.5 75q97 0 164.5 -47.5t91.5 -139.5q26 92 93.5 139.5t164.5 47.5q125 0 203 -75.5t78 -217.5v-786q0 -23 -23 -23h-18q-22 0 -22 23v778q0 124 -60.5 182.5t-159.5 58.5q-100 0 -161.5 -59t-61.5 -182v-778q0 -23 -22 -23h-19 q-22 0 -22 23v778q0 123 -62 182t-162 59q-99 0 -159 -58.5t-60 -182.5v-778q0 -23 -22 -23h-19q-22 0 -22 23z" />
<glyph unicode="n" horiz-adv-x="970" d="M162 23v739q0 164 89.5 252t233.5 88t234 -88t90 -252v-739q0 -23 -23 -23h-18q-23 0 -23 23v735q0 145 -72 214.5t-188 69.5t-188 -69.5t-72 -214.5v-735q0 -23 -22 -23h-19q-22 0 -22 23z" />
<glyph unicode="o" horiz-adv-x="925" d="M139 317v445q0 164 90 252t234 88t233.5 -88t89.5 -252v-445q0 -164 -89.5 -252t-233.5 -88t-234 88t-90 252zM203 322q0 -145 72 -215t188 -70t188 70t72 215v436q0 145 -72 214.5t-188 69.5t-188 -69.5t-72 -214.5v-436z" />
<glyph unicode="p" horiz-adv-x="952" d="M166 -324v865v221q0 164 89.5 252t233.5 88t234 -88t90 -252v-447q0 -163 -88 -250.5t-227 -87.5q-193 0 -269 154v-455q0 -22 -22 -22h-19q-22 0 -22 22zM229 322q0 -145 72 -215t188 -70t188.5 70t72.5 215v436q0 145 -72.5 214.5t-188.5 69.5t-188 -69.5t-72 -214.5 v-436z" />
<glyph unicode="q" horiz-adv-x="948" d="M139 315v447q0 164 90 252t234 88t233.5 -88t89.5 -252v-1086q0 -22 -22 -22h-19q-22 0 -22 22v455q-76 -154 -268 -154q-140 0 -228 87.5t-88 250.5zM203 322q0 -145 72 -215t188 -70t188 70t72 215v436q0 145 -72 214.5t-188 69.5t-188 -69.5t-72 -214.5v-436z" />
<glyph unicode="r" horiz-adv-x="593" d="M162 23v800q0 144 70.5 205.5t205.5 61.5q44 0 90 -9q23 -3 23 -24v-15q0 -23 -23 -20q-54 8 -82 8q-113 0 -167 -46t-54 -169v-792q0 -23 -22 -23h-19q-22 0 -22 23z" />
<glyph unicode="s" horiz-adv-x="860" d="M117 258v6q0 23 22 23h19q22 0 22 -23v-4q0 -76 36 -128t90.5 -73.5t123.5 -21.5q108 0 179 53.5t71 163.5v4q0 67 -30.5 114.5t-79.5 74t-108 48t-118.5 45.5t-108.5 56t-79.5 89.5t-30.5 137.5q0 129 86 204t217 75t217 -75t86 -204v-8q0 -22 -22 -22h-19q-22 0 -22 22 v4q0 111 -68 167t-172 56t-172 -55.5t-68 -163.5v-4q0 -53 19 -93.5t51 -66.5t73.5 -46.5t88 -37t92.5 -34t87.5 -41.5t73.5 -55t51 -80t19 -111q0 -129 -87.5 -203t-225.5 -74t-225.5 76t-87.5 205z" />
<glyph unicode="t" horiz-adv-x="624" d="M170 242v1079q0 22 23 22h18q22 0 22 -22v-242h283q23 0 23 -22v-15q0 -22 -23 -22h-283v-774q0 -110 49 -152.5t152 -42.5q28 0 82 8q23 3 23 -20v-14q0 -22 -23 -25q-39 -8 -86 -8q-127 0 -193.5 57.5t-66.5 192.5z" />
<glyph unicode="u" horiz-adv-x="970" d="M162 317v740q0 22 22 22h19q22 0 22 -22v-735q0 -145 72 -215t188 -70t188 70t72 215v735q0 22 23 22h18q23 0 23 -22v-740q0 -164 -90 -252t-234 -88t-233.5 88t-89.5 252z" />
<glyph unicode="v" horiz-adv-x="882" d="M74 1053q-3 11 1.5 18.5t16.5 7.5h21q23 0 28 -18l301 -1000l301 1000q5 18 29 18h19q12 0 16.5 -7.5t1.5 -18.5l-315 -1024q-10 -29 -39 -29h-27q-29 0 -39 29z" />
<glyph unicode="w" horiz-adv-x="1398" d="M162 270v787q0 22 22 22h19q22 0 22 -22v-778q0 -124 60 -183t159 -59q100 0 162 59.5t62 182.5v778q0 22 22 22h19q22 0 22 -22v-778q0 -124 61.5 -183t161.5 -59q99 0 159.5 59t60.5 183v778q0 22 22 22h18q23 0 23 -22v-787q0 -142 -78 -217.5t-203 -75.5 q-97 0 -164.5 47.5t-93.5 139.5q-24 -92 -91.5 -139.5t-164.5 -47.5q-125 0 -202.5 75t-77.5 218z" />
<glyph unicode="x" horiz-adv-x="876" d="M86 9q-4 9 2 20l309 522l-295 500q-6 11 -1.5 19.5t16.5 8.5h26q21 0 29 -16l266 -467l269 467q8 16 28 16h25q12 0 16 -8.5t-2 -19.5l-297 -500l311 -522q6 -11 2 -20t-16 -9h-26q-21 0 -29 16l-283 492l-280 -492q-8 -16 -29 -16h-25q-12 0 -16 9z" />
<glyph unicode="y" horiz-adv-x="985" d="M160 406v651q0 22 22 22h19q22 0 22 -22v-645q0 -145 72 -215t188 -70t188 70t72 215v645q0 22 23 22h18q23 0 23 -22v-1090q0 -164 -89.5 -250t-234.5 -86q-140 0 -226.5 77.5t-86.5 203.5q0 22 23 22h18q22 0 22 -22q0 -101 70 -162t180 -61q117 0 188.5 67.5 t71.5 212.5v252q-37 -76 -106.5 -114.5t-161.5 -38.5q-139 0 -227 87.5t-88 250.5z" />
<glyph unicode="z" horiz-adv-x="823" d="M90 23v16q0 16 8 29l549 952h-514q-22 0 -22 22v15q0 22 22 22h565q23 0 23 -22v-17q0 -15 -8 -28l-549 -953h538q23 0 23 -22v-14q0 -23 -23 -23h-589q-23 0 -23 23z" />
<glyph unicode="{" horiz-adv-x="622" d="M53 621v8q0 22 23 22q69 0 104 35t35 117v356q0 155 78.5 225t226.5 70h10q23 0 23 -22v-9q0 -22 -23 -22h-8q-128 0 -184.5 -57t-56.5 -187v-348q0 -151 -111 -184q111 -38 111 -185v-348q0 -130 56.5 -187t184.5 -57h8q23 0 23 -22v-8q0 -23 -23 -23h-10 q-148 0 -226.5 70t-78.5 225v356q0 82 -35 117t-104 35q-23 0 -23 23z" />
<glyph unicode="|" horiz-adv-x="1024" d="M483 -489v2002q0 23 23 23h12q23 0 23 -23v-2002q0 -23 -23 -23h-12q-23 0 -23 23z" />
<glyph unicode="}" horiz-adv-x="622" d="M70 -174q0 22 22 22h8q128 0 185 57t57 187v348q0 147 111 185q-111 33 -111 184v348q0 130 -57 187t-185 57h-8q-22 0 -22 22v9q0 22 22 22h10q148 0 227 -70t79 -225v-356q0 -82 35 -117t104 -35q22 0 22 -22v-8q0 -23 -22 -23q-69 0 -104 -35t-35 -117v-356 q0 -155 -79 -225t-227 -70h-10q-22 0 -22 23v8z" />
<glyph unicode="~" d="M111 653v29q0 17 14 31q84 94 203 94q54 0 113 -18.5t102.5 -41t99 -41t102.5 -18.5q58 0 101.5 25.5t89.5 79.5q8 7 17.5 3.5t9.5 -12.5v-28q0 -16 -15 -31q-84 -94 -203 -94q-54 0 -113.5 18.5t-103.5 41t-99.5 41t-100.5 18.5q-58 0 -101.5 -25.5t-89.5 -79.5 q-7 -7 -16.5 -4t-9.5 12z" />
<glyph unicode="&#xa2;" d="M174 512v410q0 164 92.5 257t243.5 101v147q0 23 22 23h17q22 0 22 -23v-147q143 -8 234.5 -93t91.5 -222q0 -23 -23 -23h-18q-22 0 -22 23q0 118 -85 188t-208 70q-63 0 -116.5 -18t-96 -53.5t-66.5 -95.5t-24 -138v-402q0 -78 24 -138t66.5 -95.5t96 -53.5t116.5 -18 q123 0 208 70t85 188q0 23 22 23h18q23 0 23 -23q0 -137 -91.5 -222.5t-234.5 -94.5v-146q0 -22 -22 -22h-17q-22 0 -22 22v146q-151 9 -243.5 102.5t-92.5 257.5z" />
<glyph unicode="&#xa3;" d="M139 23v16q0 16 13 29q95 73 151.5 173.5t56.5 209.5q0 23 -4 63h-194q-23 0 -23 23v14q0 22 23 22h184q-13 55 -43.5 119t-56 111.5t-46 121.5t-20.5 156v11q0 168 104.5 266t272.5 98t272.5 -98t104.5 -266q0 -23 -23 -23h-20q-23 0 -23 23q0 144 -87 223.5t-224 79.5 t-224 -79t-87 -222v-13q0 -75 20.5 -146t46.5 -119.5t56 -116t43 -126.5h389q22 0 22 -22v-14q0 -23 -22 -23h-379q4 -40 4 -63q0 -115 -54.5 -218.5t-138.5 -171.5h658q22 0 22 -22v-16q0 -23 -22 -23h-729q-23 0 -23 23z" />
<glyph unicode="&#xa5;" d="M141 961v450q0 23 23 23h20q23 0 23 -23v-442q0 -180 90.5 -265.5t239.5 -85.5t239 85.5t90 265.5v442q0 23 23 23h20q23 0 23 -23v-450q0 -186 -99.5 -290.5t-263.5 -113.5v-207h299q23 0 23 -22v-17q0 -22 -23 -22h-299v-266q0 -23 -22 -23h-21q-22 0 -22 23v266h-299 q-23 0 -23 22v17q0 22 23 22h299v207q-164 9 -263.5 113.5t-99.5 290.5z" />
<glyph unicode="&#xa8;" horiz-adv-x="681" d="M145 1288v62q0 22 23 22h59q23 0 23 -22v-62q0 -22 -23 -22h-59q-23 0 -23 22zM432 1288v62q0 22 23 22h59q23 0 23 -22v-62q0 -22 -23 -22h-59q-23 0 -23 22z" />
<glyph unicode="&#xa9;" horiz-adv-x="1355" d="M143 543v348q0 138 40 248t112 180.5t169 107.5t214 37t214 -37t168.5 -107.5t111.5 -180.5t40 -248v-348q0 -138 -40 -248t-111.5 -181t-168.5 -108t-214 -37t-214.5 37t-169 108t-111.5 181t-40 248zM205 549q0 -256 130 -388t343 -132t343 132t130 388v336 q0 256 -130 388t-343 132t-343 -132t-130 -388v-336zM436 567v299q0 126 67 193t179 67q104 0 170 -67t66 -168q0 -19 -19 -19h-25q-18 0 -18 19q0 79 -48.5 127.5t-125.5 48.5q-85 0 -134.5 -50t-49.5 -155v-291q0 -105 49.5 -154.5t134.5 -49.5q77 0 125.5 48.5 t48.5 127.5q0 18 18 18h25q19 0 19 -18q0 -101 -66 -168.5t-170 -67.5q-112 0 -179 67t-67 193z" />
<glyph unicode="&#xab;" horiz-adv-x="976" d="M139 539q0 20 15 41l317 403q11 14 29 14h24q12 0 15.5 -10.5t-4.5 -17.5l-336 -430l336 -430q8 -7 4.5 -18t-15.5 -11h-24q-18 0 -29 14l-317 404q-15 21 -15 41zM436 539q0 20 15 41l317 403q11 14 29 14h24q12 0 15 -10.5t-5 -17.5l-335 -430l335 -430q8 -7 5 -18 t-15 -11h-24q-18 0 -29 14l-317 404q-15 21 -15 41z" />
<glyph unicode="&#xad;" horiz-adv-x="673" d="M86 614v17q0 22 23 22h456q23 0 23 -22v-17q0 -22 -23 -22h-456q-23 0 -23 22z" />
<glyph unicode="&#xae;" horiz-adv-x="1355" d="M143 543v348q0 138 40 248t112 180.5t169 107.5t214 37t214 -37t168.5 -107.5t111.5 -180.5t40 -248v-348q0 -138 -40 -248t-111.5 -181t-168.5 -108t-214 -37t-214.5 37t-169 108t-111.5 181t-40 248zM205 549q0 -256 130 -388t343 -132t343 132t130 388v336 q0 256 -130 388t-343 132t-343 -132t-130 -388v-336zM446 342v750q0 22 23 22h231q92 0 147.5 -52t55.5 -151v-34q0 -133 -106 -175q114 -44 114 -186v-174q0 -23 -22 -23h-17q-22 0 -22 23v174q0 160 -154 160h-188v-334q0 -23 -23 -23h-16q-23 0 -23 23zM508 731h188 q146 0 146 152v22q0 150 -146 150h-188v-324z" />
<glyph unicode="&#xb4;" horiz-adv-x="681" d="M241.5 1227.5q-2.5 8.5 2.5 15.5l123 223q16 23 32 23h27q11 0 14 -9t-2 -18l-137 -225q-11 -18 -29 -18h-18q-10 0 -12.5 8.5z" />
<glyph unicode="&#xb8;" horiz-adv-x="681" d="M188 -281q0 11 7 14.5t14 -3.5q43 -43 106 -43q62 0 91.5 40.5t29.5 108.5q0 90 -35 178h54q39 -89 39 -176q0 -92 -43.5 -149.5t-137.5 -57.5q-65 0 -108 35q-17 14 -17 33v20z" />
<glyph unicode="&#xbb;" horiz-adv-x="976" d="M145 91q-3 11 5 18l335 430l-335 430q-8 7 -5 17.5t15 10.5h24q18 0 29 -14l317 -403q15 -21 15 -41t-15 -41l-317 -404q-11 -14 -29 -14h-24q-12 0 -15 11zM441.5 91q-3.5 11 4.5 18l336 430l-336 430q-8 7 -4.5 17.5t15.5 10.5h24q18 0 29 -14l317 -403q15 -21 15 -41 t-15 -41l-317 -404q-11 -14 -29 -14h-24q-12 0 -15.5 11z" />
<glyph unicode="&#xc2;" horiz-adv-x="1167" d="M184 23v1015q0 202 111 310t289 108t288.5 -108t110.5 -310v-1015q0 -23 -25 -23h-18q-25 0 -25 23v507h-663v-507q0 -23 -25 -23h-18q-25 0 -25 23zM252 594h663v434q0 186 -92 275.5t-239 89.5t-239.5 -89.5t-92.5 -275.5v-434zM406 1560q-3 8 2 15l118 172 q15 22 37 22h41q22 0 37 -22l119 -172q5 -7 2 -15t-12 -8h-19q-18 0 -31 17l-116 153l-117 -153q-13 -17 -31 -17h-18q-9 0 -12 8z" />
<glyph unicode="&#xc7;" horiz-adv-x="1081" d="M160 395v643q0 202 110 310t287 108q170 0 279.5 -107.5t109.5 -299.5v-5q0 -22 -24 -22h-19q-24 0 -24 22q0 89 -26 157t-71.5 109.5t-102 62t-122.5 20.5q-147 0 -238.5 -89.5t-91.5 -275.5v-622q0 -186 91.5 -275.5t238.5 -89.5q66 0 122.5 20.5t102 61.5t71.5 109.5 t26 156.5q0 23 24 23h19q24 0 24 -23v-4q0 -167 -83 -271t-220 -128q27 -83 27 -148q0 -92 -43.5 -149.5t-137.5 -57.5q-65 0 -108 35q-16 13 -16 33v20q0 11 6.5 14.5t13.5 -3.5q43 -43 107 -43q62 0 91 40t29 109q0 74 -22 144q-15 -3 -33 -3q-177 0 -287 108t-110 310z " />
<glyph unicode="&#xce;" horiz-adv-x="473" d="M59.5 1560q-3.5 8 1.5 15l119 172q15 22 37 22h41q22 0 37 -22l119 -172q5 -7 1.5 -15t-12.5 -8h-18q-18 0 -31 17l-116 153l-117 -153q-13 -17 -31 -17h-18q-9 0 -12.5 8zM203 23v1388q0 23 24 23h19q24 0 24 -23v-1388q0 -23 -24 -23h-19q-24 0 -24 23z" />
<glyph unicode="&#xd6;" horiz-adv-x="1118" d="M160 395v643q0 202 110.5 310t288.5 108t288.5 -108t110.5 -310v-643q0 -202 -110.5 -310t-288.5 -108t-288.5 108t-110.5 310zM227 406q0 -186 92.5 -275.5t239.5 -89.5t239.5 89.5t92.5 275.5v622q0 186 -92.5 275.5t-239.5 89.5t-239.5 -89.5t-92.5 -275.5v-622z M362 1612v61q0 23 23 23h59q23 0 23 -23v-61q0 -23 -23 -23h-59q-23 0 -23 23zM649 1612v61q0 23 23 23h59q23 0 23 -23v-61q0 -23 -23 -23h-59q-23 0 -23 23z" />
<glyph unicode="&#xdb;" horiz-adv-x="1167" d="M184 395v1016q0 23 25 23h18q25 0 25 -23v-1005q0 -186 92.5 -275.5t239.5 -89.5t239 89.5t92 275.5v1005q0 23 25 23h18q25 0 25 -23v-1016q0 -202 -110.5 -310t-288.5 -108t-289 108t-111 310zM406 1560q-3 8 2 15l118 172q15 22 37 22h41q22 0 37 -22l119 -172 q5 -7 2 -15t-12 -8h-19q-18 0 -31 17l-116 153l-117 -153q-13 -17 -31 -17h-18q-9 0 -12 8z" />
<glyph unicode="&#xdc;" horiz-adv-x="1167" d="M184 395v1016q0 23 25 23h18q25 0 25 -23v-1005q0 -186 92.5 -275.5t239.5 -89.5t239 89.5t92 275.5v1005q0 23 25 23h18q25 0 25 -23v-1016q0 -202 -110.5 -310t-288.5 -108t-289 108t-111 310zM387 1612v61q0 23 23 23h59q23 0 23 -23v-61q0 -23 -23 -23h-59 q-23 0 -23 23zM674 1612v61q0 23 22 23h60q22 0 22 -23v-61q0 -23 -22 -23h-60q-22 0 -22 23z" />
<glyph unicode="&#xe2;" horiz-adv-x="905" d="M119 287v8q0 147 94 228t229 81h260v154q0 146 -71.5 215t-188.5 69q-105 0 -174 -69.5t-69 -188.5q0 -22 -23 -22h-18q-23 0 -23 22q0 145 86 231.5t221 86.5q144 0 234 -88t90 -252v-445q0 -164 -90 -252t-234 -88q-64 0 -121.5 19.5t-103 57t-72 98t-26.5 135.5z M182 287q0 -118 74 -184t186 -66q116 0 188 70t72 215v223h-260q-112 0 -186 -66.5t-74 -185.5v-6zM277.5 1227.5q-3.5 8.5 1.5 15.5l124 223q13 23 39 23h25q26 0 39 -23l125 -223q5 -7 1 -15.5t-14 -8.5h-14q-20 0 -31 18l-118 199l-119 -199q-11 -18 -31 -18h-14 q-10 0 -13.5 8.5z" />
<glyph unicode="&#xe7;" horiz-adv-x="903" d="M139 317v445q0 164 90 252t234 88q135 0 224 -86.5t89 -231.5q0 -22 -22 -22h-19q-22 0 -22 22q0 119 -72 188.5t-178 69.5q-116 0 -188 -69.5t-72 -214.5v-436q0 -145 72 -215t188 -70q106 0 178 69.5t72 188.5q0 22 22 22h19q22 0 22 -22q0 -120 -62 -201t-165 -106 q29 -79 29 -150q0 -92 -43.5 -149.5t-137.5 -57.5q-65 0 -108 35q-17 14 -17 33v20q0 11 7 14.5t14 -3.5q43 -43 106 -43q62 0 91.5 40.5t29.5 108.5q0 74 -22 144q-15 -3 -35 -3q-144 0 -234 88t-90 252z" />
<glyph unicode="&#xee;" horiz-adv-x="419" d="M33.5 1227.5q-3.5 8.5 1.5 15.5l125 223q13 23 39 23h24q26 0 39 -23l125 -223q5 -7 1.5 -15.5t-13.5 -8.5h-15q-19 0 -30 18l-119 199l-119 -199q-11 -18 -31 -18h-14q-10 0 -13.5 8.5zM178 23v1034q0 22 23 22h18q23 0 23 -22v-1034q0 -23 -23 -23h-18q-23 0 -23 23z " />
<glyph unicode="&#xf6;" horiz-adv-x="925" d="M139 317v445q0 164 90 252t234 88t233.5 -88t89.5 -252v-445q0 -164 -89.5 -252t-233.5 -88t-234 88t-90 252zM203 322q0 -145 72 -215t188 -70t188 70t72 215v436q0 145 -72 214.5t-188 69.5t-188 -69.5t-72 -214.5v-436zM266 1288v62q0 22 23 22h59q23 0 23 -22v-62 q0 -22 -23 -22h-59q-23 0 -23 22zM553 1288v62q0 22 22 22h60q22 0 22 -22v-62q0 -22 -22 -22h-60q-22 0 -22 22z" />
<glyph unicode="&#xfb;" horiz-adv-x="970" d="M162 317v740q0 22 22 22h19q22 0 22 -22v-735q0 -145 72 -215t188 -70t188 70t72 215v735q0 22 23 22h18q23 0 23 -22v-740q0 -164 -90 -252t-234 -88t-233.5 88t-89.5 252zM308 1227.5q-4 8.5 1 15.5l125 223q13 23 39 23h25q26 0 39 -23l125 -223q5 -7 1 -15.5 t-14 -8.5h-14q-20 0 -31 18l-119 199l-118 -199q-11 -18 -31 -18h-14q-10 0 -14 8.5z" />
<glyph unicode="&#xfc;" horiz-adv-x="970" d="M162 317v740q0 22 22 22h19q22 0 22 -22v-735q0 -145 72 -215t188 -70t188 70t72 215v735q0 22 23 22h18q23 0 23 -22v-740q0 -164 -90 -252t-234 -88t-233.5 88t-89.5 252zM289 1288v62q0 22 22 22h60q22 0 22 -22v-62q0 -22 -22 -22h-60q-22 0 -22 22zM575 1288v62 q0 22 23 22h59q23 0 23 -22v-62q0 -22 -23 -22h-59q-23 0 -23 22z" />
<glyph unicode="&#x11e;" horiz-adv-x="1091" d="M160 395v643q0 202 110 310t287 108q170 0 279.5 -107.5t109.5 -299.5v-5q0 -22 -24 -22h-19q-24 0 -24 22q0 89 -26 157t-71.5 109.5t-102 62t-122.5 20.5q-147 0 -238.5 -89.5t-91.5 -275.5v-622q0 -186 92.5 -275.5t239.5 -89.5t239.5 89.5t92.5 275.5v186h-248 q-22 0 -22 24v15q0 24 22 24h293q22 0 22 -24v-236q0 -202 -110.5 -310t-288.5 -108t-288.5 108t-110.5 310zM358 1726q0 23 25 23h10q23 0 23 -23q0 -51 35.5 -79.5t105.5 -28.5t105.5 28.5t35.5 79.5q0 23 23 23h10q25 0 25 -23q0 -78 -52 -121.5t-147 -43.5t-147 43.5 t-52 121.5z" />
<glyph unicode="&#x11f;" horiz-adv-x="946" d="M137 406v356q0 164 90 252t234 88t233.5 -88t89.5 -252v-795q0 -164 -89.5 -250t-233.5 -86q-140 0 -227 77.5t-87 203.5q0 22 23 22h18q23 0 23 -22q0 -101 70 -162t180 -61q117 0 188.5 67.5t71.5 212.5v252q-37 -76 -106.5 -114.5t-161.5 -38.5q-140 0 -228 87.5 t-88 250.5zM201 412q0 -145 72 -215t188 -70t188 70t72 215v346q0 145 -72 214.5t-188 69.5t-188 -69.5t-72 -214.5v-346zM262 1446q0 22 25 22h10q22 0 22 -22q0 -68 35.5 -111t106.5 -43t106 43t35 111q0 22 23 22h10q24 0 24 -22q0 -98 -54.5 -154.5t-143.5 -56.5 t-144 56.5t-55 154.5z" />
<glyph unicode="&#x130;" horiz-adv-x="473" d="M184 1612v61q0 23 23 23h59q23 0 23 -23v-61q0 -23 -23 -23h-59q-23 0 -23 23zM203 23v1388q0 23 24 23h19q24 0 24 -23v-1388q0 -23 -24 -23h-19q-24 0 -24 23z" />
<glyph unicode="&#x131;" horiz-adv-x="419" d="M178 23v1034q0 22 23 22h18q23 0 23 -22v-1034q0 -23 -23 -23h-18q-23 0 -23 23z" />
<glyph unicode="&#x15e;" horiz-adv-x="1034" d="M131 340v12q0 23 25 23h18q25 0 25 -23v-8q0 -155 88 -229t231 -74q68 0 124.5 16.5t101 51t69.5 93.5t25 138v2q0 70 -24 124.5t-64.5 90t-93 64t-110.5 51t-115.5 46.5t-110 55.5t-93 72.5t-64.5 103.5t-24 142.5v2q0 173 105 267.5t272 94.5t272 -94.5t105 -267.5v-13 q0 -22 -25 -22h-18q-25 0 -25 22v4q0 156 -85.5 232t-223.5 76q-139 0 -224 -73t-85 -228v-2q0 -70 24 -124t64.5 -89t92.5 -63t110 -50.5t116 -46t110 -55.5t92.5 -72.5t64.5 -103.5t24 -144v-2q0 -151 -80.5 -242t-218.5 -112q27 -83 27 -148q0 -93 -43 -150t-137 -57 q-66 0 -109 35q-16 13 -16 33v20q0 11 6 14.5t14 -3.5q43 -43 107 -43q62 0 91 40t29 109q0 74 -22 144q-15 -3 -35 -3q-175 0 -281 94.5t-106 268.5z" />
<glyph unicode="&#x15f;" horiz-adv-x="860" d="M117 258v6q0 23 22 23h19q22 0 22 -23v-4q0 -76 36 -128t90.5 -73.5t123.5 -21.5q108 0 179 53.5t71 163.5v4q0 67 -30.5 114.5t-79.5 74t-108 48t-118.5 45.5t-108.5 56t-79.5 89.5t-30.5 137.5q0 129 86 204t217 75t217 -75t86 -204v-8q0 -22 -22 -22h-19q-22 0 -22 22 v4q0 111 -68 167t-172 56t-172 -55.5t-68 -163.5v-4q0 -53 19 -93.5t51 -66.5t73.5 -46.5t88 -37t92.5 -34t87.5 -41.5t73.5 -55t51 -80t19 -111q0 -106 -60 -175t-161 -91q29 -79 29 -150q0 -93 -43 -150t-137 -57q-66 0 -109 35q-16 13 -16 33v20q0 11 6 14.5t14 -3.5 q43 -43 107 -43q62 0 91.5 40.5t29.5 108.5q0 71 -23 144q-6 0 -20 -1.5t-21 -1.5q-138 0 -225.5 76t-87.5 205z" />
<glyph unicode="&#x2c6;" horiz-adv-x="681" d="M162.5 1227.5q-3.5 8.5 1.5 15.5l125 223q13 23 39 23h24q26 0 39 -23l125 -223q5 -7 1.5 -15.5t-13.5 -8.5h-15q-19 0 -30 18l-119 199l-119 -199q-11 -18 -31 -18h-14q-10 0 -13.5 8.5z" />
<glyph unicode="&#x2da;" horiz-adv-x="681" d="M197 1354q0 60 41.5 99.5t101.5 39.5t101.5 -39.5t41.5 -99.5q0 -61 -41.5 -100.5t-101.5 -39.5t-101.5 39.5t-41.5 100.5zM250 1354q0 -39 26 -63.5t64 -24.5t64 24.5t26 63.5t-26 63.5t-64 24.5t-64 -24.5t-26 -63.5z" />
<glyph unicode="&#x2dc;" horiz-adv-x="681" d="M152 1264v24q0 24 12 41q38 55 94 55q30 0 55 -12.5t39 -27t33.5 -27t38.5 -12.5q15 0 26 5t21.5 17.5t15 20.5t15.5 28q4 9 16 7.5t12 -13.5v-24q0 -24 -12 -41q-39 -56 -94 -56q-37 0 -66 20t-52.5 40t-47.5 20q-19 0 -35 -12t-22.5 -23t-20.5 -37q-4 -9 -16 -7t-12 14 z" />
<glyph unicode="&#x2000;" horiz-adv-x="884" />
<glyph unicode="&#x2001;" horiz-adv-x="1769" />
<glyph unicode="&#x2002;" horiz-adv-x="884" />
<glyph unicode="&#x2003;" horiz-adv-x="1769" />
<glyph unicode="&#x2004;" horiz-adv-x="589" />
<glyph unicode="&#x2005;" horiz-adv-x="442" />
<glyph unicode="&#x2006;" horiz-adv-x="294" />
<glyph unicode="&#x2007;" horiz-adv-x="294" />
<glyph unicode="&#x2008;" horiz-adv-x="221" />
<glyph unicode="&#x2009;" horiz-adv-x="353" />
<glyph unicode="&#x200a;" horiz-adv-x="98" />
<glyph unicode="&#x2010;" horiz-adv-x="673" d="M86 614v17q0 22 23 22h456q23 0 23 -22v-17q0 -22 -23 -22h-456q-23 0 -23 22z" />
<glyph unicode="&#x2011;" horiz-adv-x="673" d="M86 614v17q0 22 23 22h456q23 0 23 -22v-17q0 -22 -23 -22h-456q-23 0 -23 22z" />
<glyph unicode="&#x2012;" horiz-adv-x="673" d="M86 614v17q0 22 23 22h456q23 0 23 -22v-17q0 -22 -23 -22h-456q-23 0 -23 22z" />
<glyph unicode="&#x2013;" horiz-adv-x="1024" d="M61 616v13q0 22 23 22h856q23 0 23 -22v-13q0 -22 -23 -22h-856q-23 0 -23 22z" />
<glyph unicode="&#x2014;" horiz-adv-x="2048" d="M61 616v13q0 22 23 22h1880q23 0 23 -22v-13q0 -22 -23 -22h-1880q-23 0 -23 22z" />
<glyph unicode="&#x2018;" horiz-adv-x="454" d="M182 1059l94 356q4 19 23 19h14q9 0 14 -6t3 -15l-64 -360q-3 -23 -24 -23h-41q-11 0 -16.5 8t-2.5 21z" />
<glyph unicode="&#x2019;" horiz-adv-x="454" d="M125 1051l63 360q3 23 25 23h41q24 0 18 -29l-94 -356q-4 -19 -22 -19h-15q-19 0 -16 21z" />
<glyph unicode="&#x201a;" horiz-adv-x="454" d="M125 -242l63 361q3 22 25 22h41q24 0 18 -28l-94 -357q-4 -18 -22 -18h-15q-19 0 -16 20z" />
<glyph unicode="&#x201c;" horiz-adv-x="700" d="M182 1059l94 356q4 19 23 19h14q9 0 14 -6t3 -15l-64 -360q-3 -23 -24 -23h-41q-11 0 -16.5 8t-2.5 21zM428 1059l94 356q4 19 23 19h14q19 0 16 -21l-63 -360q-3 -23 -25 -23h-41q-24 0 -18 29z" />
<glyph unicode="&#x201d;" horiz-adv-x="700" d="M125 1051l63 360q3 23 25 23h41q24 0 18 -29l-94 -356q-4 -19 -22 -19h-15q-19 0 -16 21zM371 1051l63 360q3 23 25 23h41q24 0 18 -29l-94 -356q-4 -19 -23 -19h-14q-19 0 -16 21z" />
<glyph unicode="&#x201e;" horiz-adv-x="700" d="M125 -242l63 361q3 22 25 22h41q24 0 18 -28l-94 -357q-4 -18 -22 -18h-15q-19 0 -16 20zM371 -242l63 361q3 22 25 22h41q24 0 18 -28l-94 -357q-4 -18 -23 -18h-14q-19 0 -16 20z" />
<glyph unicode="&#x2026;" horiz-adv-x="2048" d="M354 23v96q0 22 23 22h59q23 0 23 -22v-96q0 -23 -23 -23h-59q-23 0 -23 23zM971 23v96q0 22 22 22h60q22 0 22 -22v-96q0 -23 -22 -23h-60q-22 0 -22 23zM1589 23v96q0 22 23 22h59q23 0 23 -22v-96q0 -23 -23 -23h-59q-23 0 -23 23z" />
<glyph unicode="&#x202f;" horiz-adv-x="353" />
<glyph unicode="&#x2039;" horiz-adv-x="679" d="M139 539q0 20 15 41l317 403q11 14 29 14h24q12 0 15.5 -10.5t-4.5 -17.5l-336 -430l336 -430q8 -7 4.5 -18t-15.5 -11h-24q-18 0 -29 14l-317 404q-15 21 -15 41z" />
<glyph unicode="&#x203a;" horiz-adv-x="679" d="M145 91q-3 11 5 18l335 430l-335 430q-8 7 -5 17.5t15 10.5h24q18 0 29 -14l317 -403q15 -21 15 -41t-15 -41l-317 -404q-11 -14 -29 -14h-24q-12 0 -15 11z" />
<glyph unicode="&#x205f;" horiz-adv-x="442" />
<glyph unicode="&#x20ac;" d="M102 547v14q0 23 23 23h96v266h-96q-23 0 -23 22v15q0 22 23 22h96v183q0 168 103.5 266t271.5 98t271.5 -98t103.5 -266q0 -23 -23 -23h-20q-23 0 -23 23v2q0 143 -86 222t-223 79t-223 -79t-86 -222v-185h354q23 0 23 -22v-15q0 -22 -23 -22h-354v-266h354q23 0 23 -23 v-14q0 -23 -23 -23h-354v-186q0 -143 86 -222t223 -79t223 79t86 222v2q0 22 23 22h20q23 0 23 -22q0 -168 -103.5 -266.5t-271.5 -98.5t-271.5 98.5t-103.5 266.5v184h-96q-23 0 -23 23z" />
<glyph unicode="&#x2122;" horiz-adv-x="1466" d="M43 1397v14q0 23 23 23h352q22 0 22 -23v-14q0 -23 -22 -23h-146v-688q0 -22 -22 -22h-17q-22 0 -22 22v688h-145q-23 0 -23 23zM551 686v555q0 102 52 158.5t151 56.5q139 0 180 -110q41 110 180 110q99 0 151 -56.5t52 -158.5v-555q0 -22 -23 -22h-16q-23 0 -23 22v537 q0 174 -145 174t-145 -174v-537q0 -22 -23 -22h-16q-23 0 -23 22v537q0 174 -145 174q-146 0 -146 -174v-537q0 -22 -22 -22h-17q-22 0 -22 22z" />
<glyph unicode="&#x25fc;" horiz-adv-x="1075" d="M0 0v1075h1075v-1075h-1075z" />
</font>
</defs>
</svg>
